# Per-tank process manifold and valve module
mtllib h1_industrial.mtl
s off
v -0.725 -1.575 0.39
v -0.725 -1.573621 0.377761
v 0.725 -1.573621 0.377761
v 0.725 -1.575 0.39
v -0.725 -1.573621 0.377761
v -0.725 -1.569553 0.366136
v 0.725 -1.569553 0.366136
v 0.725 -1.573621 0.377761
v -0.725 -1.569553 0.366136
v -0.725 -1.563001 0.355708
v 0.725 -1.563001 0.355708
v 0.725 -1.569553 0.366136
v -0.725 -1.563001 0.355708
v -0.725 -1.554292 0.346999
v 0.725 -1.554292 0.346999
v 0.725 -1.563001 0.355708
v -0.725 -1.554292 0.346999
v -0.725 -1.543864 0.340447
v 0.725 -1.543864 0.340447
v 0.725 -1.554292 0.346999
v -0.725 -1.543864 0.340447
v -0.725 -1.532239 0.336379
v 0.725 -1.532239 0.336379
v 0.725 -1.543864 0.340447
v -0.725 -1.532239 0.336379
v -0.725 -1.52 0.335
v 0.725 -1.52 0.335
v 0.725 -1.532239 0.336379
v -0.725 -1.52 0.335
v -0.725 -1.507761 0.336379
v 0.725 -1.507761 0.336379
v 0.725 -1.52 0.335
v -0.725 -1.507761 0.336379
v -0.725 -1.496136 0.340447
v 0.725 -1.496136 0.340447
v 0.725 -1.507761 0.336379
v -0.725 -1.496136 0.340447
v -0.725 -1.485708 0.346999
v 0.725 -1.485708 0.346999
v 0.725 -1.496136 0.340447
v -0.725 -1.485708 0.346999
v -0.725 -1.476999 0.355708
v 0.725 -1.476999 0.355708
v 0.725 -1.485708 0.346999
v -0.725 -1.476999 0.355708
v -0.725 -1.470447 0.366136
v 0.725 -1.470447 0.366136
v 0.725 -1.476999 0.355708
v -0.725 -1.470447 0.366136
v -0.725 -1.466379 0.377761
v 0.725 -1.466379 0.377761
v 0.725 -1.470447 0.366136
v -0.725 -1.466379 0.377761
v -0.725 -1.465 0.39
v 0.725 -1.465 0.39
v 0.725 -1.466379 0.377761
v -0.725 -1.465 0.39
v -0.725 -1.466379 0.402239
v 0.725 -1.466379 0.402239
v 0.725 -1.465 0.39
v -0.725 -1.466379 0.402239
v -0.725 -1.470447 0.413864
v 0.725 -1.470447 0.413864
v 0.725 -1.466379 0.402239
v -0.725 -1.470447 0.413864
v -0.725 -1.476999 0.424292
v 0.725 -1.476999 0.424292
v 0.725 -1.470447 0.413864
v -0.725 -1.476999 0.424292
v -0.725 -1.485708 0.433001
v 0.725 -1.485708 0.433001
v 0.725 -1.476999 0.424292
v -0.725 -1.485708 0.433001
v -0.725 -1.496136 0.439553
v 0.725 -1.496136 0.439553
v 0.725 -1.485708 0.433001
v -0.725 -1.496136 0.439553
v -0.725 -1.507761 0.443621
v 0.725 -1.507761 0.443621
v 0.725 -1.496136 0.439553
v -0.725 -1.507761 0.443621
v -0.725 -1.52 0.445
v 0.725 -1.52 0.445
v 0.725 -1.507761 0.443621
v -0.725 -1.52 0.445
v -0.725 -1.532239 0.443621
v 0.725 -1.532239 0.443621
v 0.725 -1.52 0.445
v -0.725 -1.532239 0.443621
v -0.725 -1.543864 0.439553
v 0.725 -1.543864 0.439553
v 0.725 -1.532239 0.443621
v -0.725 -1.543864 0.439553
v -0.725 -1.554292 0.433001
v 0.725 -1.554292 0.433001
v 0.725 -1.543864 0.439553
v -0.725 -1.554292 0.433001
v -0.725 -1.563001 0.424292
v 0.725 -1.563001 0.424292
v 0.725 -1.554292 0.433001
v -0.725 -1.563001 0.424292
v -0.725 -1.569553 0.413864
v 0.725 -1.569553 0.413864
v 0.725 -1.563001 0.424292
v -0.725 -1.569553 0.413864
v -0.725 -1.573621 0.402239
v 0.725 -1.573621 0.402239
v 0.725 -1.569553 0.413864
v -0.725 -1.573621 0.402239
v -0.725 -1.575 0.39
v 0.725 -1.575 0.39
v 0.725 -1.573621 0.402239
v -0.725 -1.575 0.39
v -0.725 -1.573621 0.377761
v -0.725 -1.569553 0.366136
v -0.725 -1.563001 0.355708
v -0.725 -1.554292 0.346999
v -0.725 -1.543864 0.340447
v -0.725 -1.532239 0.336379
v -0.725 -1.52 0.335
v -0.725 -1.507761 0.336379
v -0.725 -1.496136 0.340447
v -0.725 -1.485708 0.346999
v -0.725 -1.476999 0.355708
v -0.725 -1.470447 0.366136
v -0.725 -1.466379 0.377761
v -0.725 -1.465 0.39
v -0.725 -1.466379 0.402239
v -0.725 -1.470447 0.413864
v -0.725 -1.476999 0.424292
v -0.725 -1.485708 0.433001
v -0.725 -1.496136 0.439553
v -0.725 -1.507761 0.443621
v -0.725 -1.52 0.445
v -0.725 -1.532239 0.443621
v -0.725 -1.543864 0.439553
v -0.725 -1.554292 0.433001
v -0.725 -1.563001 0.424292
v -0.725 -1.569553 0.413864
v -0.725 -1.573621 0.402239
v 0.725 -1.575 0.39
v 0.725 -1.573621 0.377761
v 0.725 -1.569553 0.366136
v 0.725 -1.563001 0.355708
v 0.725 -1.554292 0.346999
v 0.725 -1.543864 0.340447
v 0.725 -1.532239 0.336379
v 0.725 -1.52 0.335
v 0.725 -1.507761 0.336379
v 0.725 -1.496136 0.340447
v 0.725 -1.485708 0.346999
v 0.725 -1.476999 0.355708
v 0.725 -1.470447 0.366136
v 0.725 -1.466379 0.377761
v 0.725 -1.465 0.39
v 0.725 -1.466379 0.402239
v 0.725 -1.470447 0.413864
v 0.725 -1.476999 0.424292
v 0.725 -1.485708 0.433001
v 0.725 -1.496136 0.439553
v 0.725 -1.507761 0.443621
v 0.725 -1.52 0.445
v 0.725 -1.532239 0.443621
v 0.725 -1.543864 0.439553
v 0.725 -1.554292 0.433001
v 0.725 -1.563001 0.424292
v 0.725 -1.569553 0.413864
v 0.725 -1.573621 0.402239
v -0.725 -1.698 0.24
v -0.725 -1.696705 0.230165
v 0.725 -1.696705 0.230165
v 0.725 -1.698 0.24
v -0.725 -1.696705 0.230165
v -0.725 -1.692909 0.221
v 0.725 -1.692909 0.221
v 0.725 -1.696705 0.230165
v -0.725 -1.692909 0.221
v -0.725 -1.68687 0.21313
v 0.725 -1.68687 0.21313
v 0.725 -1.692909 0.221
v -0.725 -1.68687 0.21313
v -0.725 -1.679 0.207091
v 0.725 -1.679 0.207091
v 0.725 -1.68687 0.21313
v -0.725 -1.679 0.207091
v -0.725 -1.669835 0.203295
v 0.725 -1.669835 0.203295
v 0.725 -1.679 0.207091
v -0.725 -1.669835 0.203295
v -0.725 -1.66 0.202
v 0.725 -1.66 0.202
v 0.725 -1.669835 0.203295
v -0.725 -1.66 0.202
v -0.725 -1.650165 0.203295
v 0.725 -1.650165 0.203295
v 0.725 -1.66 0.202
v -0.725 -1.650165 0.203295
v -0.725 -1.641 0.207091
v 0.725 -1.641 0.207091
v 0.725 -1.650165 0.203295
v -0.725 -1.641 0.207091
v -0.725 -1.63313 0.21313
v 0.725 -1.63313 0.21313
v 0.725 -1.641 0.207091
v -0.725 -1.63313 0.21313
v -0.725 -1.627091 0.221
v 0.725 -1.627091 0.221
v 0.725 -1.63313 0.21313
v -0.725 -1.627091 0.221
v -0.725 -1.623295 0.230165
v 0.725 -1.623295 0.230165
v 0.725 -1.627091 0.221
v -0.725 -1.623295 0.230165
v -0.725 -1.622 0.24
v 0.725 -1.622 0.24
v 0.725 -1.623295 0.230165
v -0.725 -1.622 0.24
v -0.725 -1.623295 0.249835
v 0.725 -1.623295 0.249835
v 0.725 -1.622 0.24
v -0.725 -1.623295 0.249835
v -0.725 -1.627091 0.259
v 0.725 -1.627091 0.259
v 0.725 -1.623295 0.249835
v -0.725 -1.627091 0.259
v -0.725 -1.63313 0.26687
v 0.725 -1.63313 0.26687
v 0.725 -1.627091 0.259
v -0.725 -1.63313 0.26687
v -0.725 -1.641 0.272909
v 0.725 -1.641 0.272909
v 0.725 -1.63313 0.26687
v -0.725 -1.641 0.272909
v -0.725 -1.650165 0.276705
v 0.725 -1.650165 0.276705
v 0.725 -1.641 0.272909
v -0.725 -1.650165 0.276705
v -0.725 -1.66 0.278
v 0.725 -1.66 0.278
v 0.725 -1.650165 0.276705
v -0.725 -1.66 0.278
v -0.725 -1.669835 0.276705
v 0.725 -1.669835 0.276705
v 0.725 -1.66 0.278
v -0.725 -1.669835 0.276705
v -0.725 -1.679 0.272909
v 0.725 -1.679 0.272909
v 0.725 -1.669835 0.276705
v -0.725 -1.679 0.272909
v -0.725 -1.68687 0.26687
v 0.725 -1.68687 0.26687
v 0.725 -1.679 0.272909
v -0.725 -1.68687 0.26687
v -0.725 -1.692909 0.259
v 0.725 -1.692909 0.259
v 0.725 -1.68687 0.26687
v -0.725 -1.692909 0.259
v -0.725 -1.696705 0.249835
v 0.725 -1.696705 0.249835
v 0.725 -1.692909 0.259
v -0.725 -1.696705 0.249835
v -0.725 -1.698 0.24
v 0.725 -1.698 0.24
v 0.725 -1.696705 0.249835
v -0.725 -1.698 0.24
v -0.725 -1.696705 0.230165
v -0.725 -1.692909 0.221
v -0.725 -1.68687 0.21313
v -0.725 -1.679 0.207091
v -0.725 -1.669835 0.203295
v -0.725 -1.66 0.202
v -0.725 -1.650165 0.203295
v -0.725 -1.641 0.207091
v -0.725 -1.63313 0.21313
v -0.725 -1.627091 0.221
v -0.725 -1.623295 0.230165
v -0.725 -1.622 0.24
v -0.725 -1.623295 0.249835
v -0.725 -1.627091 0.259
v -0.725 -1.63313 0.26687
v -0.725 -1.641 0.272909
v -0.725 -1.650165 0.276705
v -0.725 -1.66 0.278
v -0.725 -1.669835 0.276705
v -0.725 -1.679 0.272909
v -0.725 -1.68687 0.26687
v -0.725 -1.692909 0.259
v -0.725 -1.696705 0.249835
v 0.725 -1.696705 0.249835
v 0.725 -1.692909 0.259
v 0.725 -1.68687 0.26687
v 0.725 -1.679 0.272909
v 0.725 -1.669835 0.276705
v 0.725 -1.66 0.278
v 0.725 -1.650165 0.276705
v 0.725 -1.641 0.272909
v 0.725 -1.63313 0.26687
v 0.725 -1.627091 0.259
v 0.725 -1.623295 0.249835
v 0.725 -1.622 0.24
v 0.725 -1.623295 0.230165
v 0.725 -1.627091 0.221
v 0.725 -1.63313 0.21313
v 0.725 -1.641 0.207091
v 0.725 -1.650165 0.203295
v 0.725 -1.66 0.202
v 0.725 -1.669835 0.203295
v 0.725 -1.679 0.207091
v 0.725 -1.68687 0.21313
v 0.725 -1.692909 0.221
v 0.725 -1.696705 0.230165
v 0.725 -1.698 0.24
v -0.7125 -1.598 0.39
v -0.7125 -1.595342 0.369812
v -0.6675 -1.595342 0.369812
v -0.6675 -1.598 0.39
v -0.7125 -1.595342 0.369812
v -0.7125 -1.58755 0.351
v -0.6675 -1.58755 0.351
v -0.6675 -1.595342 0.369812
v -0.7125 -1.58755 0.351
v -0.7125 -1.575154 0.334846
v -0.6675 -1.575154 0.334846
v -0.6675 -1.58755 0.351
v -0.7125 -1.575154 0.334846
v -0.7125 -1.559 0.32245
v -0.6675 -1.559 0.32245
v -0.6675 -1.575154 0.334846
v -0.7125 -1.559 0.32245
v -0.7125 -1.540188 0.314658
v -0.6675 -1.540188 0.314658
v -0.6675 -1.559 0.32245
v -0.7125 -1.540188 0.314658
v -0.7125 -1.52 0.312
v -0.6675 -1.52 0.312
v -0.6675 -1.540188 0.314658
v -0.7125 -1.52 0.312
v -0.7125 -1.499812 0.314658
v -0.6675 -1.499812 0.314658
v -0.6675 -1.52 0.312
v -0.7125 -1.499812 0.314658
v -0.7125 -1.481 0.32245
v -0.6675 -1.481 0.32245
v -0.6675 -1.499812 0.314658
v -0.7125 -1.481 0.32245
v -0.7125 -1.464846 0.334846
v -0.6675 -1.464846 0.334846
v -0.6675 -1.481 0.32245
v -0.7125 -1.464846 0.334846
v -0.7125 -1.45245 0.351
v -0.6675 -1.45245 0.351
v -0.6675 -1.464846 0.334846
v -0.7125 -1.45245 0.351
v -0.7125 -1.444658 0.369812
v -0.6675 -1.444658 0.369812
v -0.6675 -1.45245 0.351
v -0.7125 -1.444658 0.369812
v -0.7125 -1.442 0.39
v -0.6675 -1.442 0.39
v -0.6675 -1.444658 0.369812
v -0.7125 -1.442 0.39
v -0.7125 -1.444658 0.410188
v -0.6675 -1.444658 0.410188
v -0.6675 -1.442 0.39
v -0.7125 -1.444658 0.410188
v -0.7125 -1.45245 0.429
v -0.6675 -1.45245 0.429
v -0.6675 -1.444658 0.410188
v -0.7125 -1.45245 0.429
v -0.7125 -1.464846 0.445154
v -0.6675 -1.464846 0.445154
v -0.6675 -1.45245 0.429
v -0.7125 -1.464846 0.445154
v -0.7125 -1.481 0.45755
v -0.6675 -1.481 0.45755
v -0.6675 -1.464846 0.445154
v -0.7125 -1.481 0.45755
v -0.7125 -1.499812 0.465342
v -0.6675 -1.499812 0.465342
v -0.6675 -1.481 0.45755
v -0.7125 -1.499812 0.465342
v -0.7125 -1.52 0.468
v -0.6675 -1.52 0.468
v -0.6675 -1.499812 0.465342
v -0.7125 -1.52 0.468
v -0.7125 -1.540188 0.465342
v -0.6675 -1.540188 0.465342
v -0.6675 -1.52 0.468
v -0.7125 -1.540188 0.465342
v -0.7125 -1.559 0.45755
v -0.6675 -1.559 0.45755
v -0.6675 -1.540188 0.465342
v -0.7125 -1.559 0.45755
v -0.7125 -1.575154 0.445154
v -0.6675 -1.575154 0.445154
v -0.6675 -1.559 0.45755
v -0.7125 -1.575154 0.445154
v -0.7125 -1.58755 0.429
v -0.6675 -1.58755 0.429
v -0.6675 -1.575154 0.445154
v -0.7125 -1.58755 0.429
v -0.7125 -1.595342 0.410188
v -0.6675 -1.595342 0.410188
v -0.6675 -1.58755 0.429
v -0.7125 -1.595342 0.410188
v -0.7125 -1.598 0.39
v -0.6675 -1.598 0.39
v -0.6675 -1.595342 0.410188
v -0.7125 -1.595342 0.410188
v -0.7125 -1.58755 0.429
v -0.7125 -1.575154 0.445154
v -0.7125 -1.559 0.45755
v -0.7125 -1.540188 0.465342
v -0.7125 -1.52 0.468
v -0.7125 -1.499812 0.465342
v -0.7125 -1.481 0.45755
v -0.7125 -1.464846 0.445154
v -0.7125 -1.45245 0.429
v -0.7125 -1.444658 0.410188
v -0.7125 -1.442 0.39
v -0.7125 -1.444658 0.369812
v -0.7125 -1.45245 0.351
v -0.7125 -1.464846 0.334846
v -0.7125 -1.481 0.32245
v -0.7125 -1.499812 0.314658
v -0.7125 -1.52 0.312
v -0.7125 -1.540188 0.314658
v -0.7125 -1.559 0.32245
v -0.7125 -1.575154 0.334846
v -0.7125 -1.58755 0.351
v -0.7125 -1.595342 0.369812
v -0.7125 -1.598 0.39
v -0.6675 -1.595342 0.410188
v -0.6675 -1.58755 0.429
v -0.6675 -1.575154 0.445154
v -0.6675 -1.559 0.45755
v -0.6675 -1.540188 0.465342
v -0.6675 -1.52 0.468
v -0.6675 -1.499812 0.465342
v -0.6675 -1.481 0.45755
v -0.6675 -1.464846 0.445154
v -0.6675 -1.45245 0.429
v -0.6675 -1.444658 0.410188
v -0.6675 -1.442 0.39
v -0.6675 -1.444658 0.369812
v -0.6675 -1.45245 0.351
v -0.6675 -1.464846 0.334846
v -0.6675 -1.481 0.32245
v -0.6675 -1.499812 0.314658
v -0.6675 -1.52 0.312
v -0.6675 -1.540188 0.314658
v -0.6675 -1.559 0.32245
v -0.6675 -1.575154 0.334846
v -0.6675 -1.58755 0.351
v -0.6675 -1.595342 0.369812
v -0.6675 -1.598 0.39
v -0.71 -1.718 0.24
v -0.71 -1.715651 0.22366
v -0.67 -1.715651 0.22366
v -0.67 -1.718 0.24
v -0.71 -1.715651 0.22366
v -0.71 -1.708793 0.208643
v -0.67 -1.708793 0.208643
v -0.67 -1.715651 0.22366
v -0.71 -1.708793 0.208643
v -0.71 -1.697982 0.196167
v -0.67 -1.697982 0.196167
v -0.67 -1.708793 0.208643
v -0.71 -1.697982 0.196167
v -0.71 -1.684094 0.187241
v -0.67 -1.684094 0.187241
v -0.67 -1.697982 0.196167
v -0.71 -1.684094 0.187241
v -0.71 -1.668254 0.18259
v -0.67 -1.668254 0.18259
v -0.67 -1.684094 0.187241
v -0.71 -1.668254 0.18259
v -0.71 -1.651746 0.18259
v -0.67 -1.651746 0.18259
v -0.67 -1.668254 0.18259
v -0.71 -1.651746 0.18259
v -0.71 -1.635906 0.187241
v -0.67 -1.635906 0.187241
v -0.67 -1.651746 0.18259
v -0.71 -1.635906 0.187241
v -0.71 -1.622018 0.196167
v -0.67 -1.622018 0.196167
v -0.67 -1.635906 0.187241
v -0.71 -1.622018 0.196167
v -0.71 -1.611207 0.208643
v -0.67 -1.611207 0.208643
v -0.67 -1.622018 0.196167
v -0.71 -1.611207 0.208643
v -0.71 -1.604349 0.22366
v -0.67 -1.604349 0.22366
v -0.67 -1.611207 0.208643
v -0.71 -1.604349 0.22366
v -0.71 -1.602 0.24
v -0.67 -1.602 0.24
v -0.67 -1.604349 0.22366
v -0.71 -1.602 0.24
v -0.71 -1.604349 0.25634
v -0.67 -1.604349 0.25634
v -0.67 -1.602 0.24
v -0.71 -1.604349 0.25634
v -0.71 -1.611207 0.271357
v -0.67 -1.611207 0.271357
v -0.67 -1.604349 0.25634
v -0.71 -1.611207 0.271357
v -0.71 -1.622018 0.283833
v -0.67 -1.622018 0.283833
v -0.67 -1.611207 0.271357
v -0.71 -1.622018 0.283833
v -0.71 -1.635906 0.292759
v -0.67 -1.635906 0.292759
v -0.67 -1.622018 0.283833
v -0.71 -1.635906 0.292759
v -0.71 -1.651746 0.29741
v -0.67 -1.651746 0.29741
v -0.67 -1.635906 0.292759
v -0.71 -1.651746 0.29741
v -0.71 -1.668254 0.29741
v -0.67 -1.668254 0.29741
v -0.67 -1.651746 0.29741
v -0.71 -1.668254 0.29741
v -0.71 -1.684094 0.292759
v -0.67 -1.684094 0.292759
v -0.67 -1.668254 0.29741
v -0.71 -1.684094 0.292759
v -0.71 -1.697982 0.283833
v -0.67 -1.697982 0.283833
v -0.67 -1.684094 0.292759
v -0.71 -1.697982 0.283833
v -0.71 -1.708793 0.271357
v -0.67 -1.708793 0.271357
v -0.67 -1.697982 0.283833
v -0.71 -1.708793 0.271357
v -0.71 -1.715651 0.25634
v -0.67 -1.715651 0.25634
v -0.67 -1.708793 0.271357
v -0.71 -1.715651 0.25634
v -0.71 -1.718 0.24
v -0.67 -1.718 0.24
v -0.67 -1.715651 0.25634
v -0.71 -1.715651 0.25634
v -0.71 -1.708793 0.271357
v -0.71 -1.697982 0.283833
v -0.71 -1.684094 0.292759
v -0.71 -1.668254 0.29741
v -0.71 -1.651746 0.29741
v -0.71 -1.635906 0.292759
v -0.71 -1.622018 0.283833
v -0.71 -1.611207 0.271357
v -0.71 -1.604349 0.25634
v -0.71 -1.602 0.24
v -0.71 -1.604349 0.22366
v -0.71 -1.611207 0.208643
v -0.71 -1.622018 0.196167
v -0.71 -1.635906 0.187241
v -0.71 -1.651746 0.18259
v -0.71 -1.668254 0.18259
v -0.71 -1.684094 0.187241
v -0.71 -1.697982 0.196167
v -0.71 -1.708793 0.208643
v -0.71 -1.715651 0.22366
v -0.71 -1.718 0.24
v -0.67 -1.718 0.24
v -0.67 -1.715651 0.22366
v -0.67 -1.708793 0.208643
v -0.67 -1.697982 0.196167
v -0.67 -1.684094 0.187241
v -0.67 -1.668254 0.18259
v -0.67 -1.651746 0.18259
v -0.67 -1.635906 0.187241
v -0.67 -1.622018 0.196167
v -0.67 -1.611207 0.208643
v -0.67 -1.604349 0.22366
v -0.67 -1.602 0.24
v -0.67 -1.604349 0.25634
v -0.67 -1.611207 0.271357
v -0.67 -1.622018 0.283833
v -0.67 -1.635906 0.292759
v -0.67 -1.651746 0.29741
v -0.67 -1.668254 0.29741
v -0.67 -1.684094 0.292759
v -0.67 -1.697982 0.283833
v -0.67 -1.708793 0.271357
v -0.67 -1.715651 0.25634
v 0.6675 -1.598 0.39
v 0.6675 -1.595342 0.369812
v 0.7125 -1.595342 0.369812
v 0.7125 -1.598 0.39
v 0.6675 -1.595342 0.369812
v 0.6675 -1.58755 0.351
v 0.7125 -1.58755 0.351
v 0.7125 -1.595342 0.369812
v 0.6675 -1.58755 0.351
v 0.6675 -1.575154 0.334846
v 0.7125 -1.575154 0.334846
v 0.7125 -1.58755 0.351
v 0.6675 -1.575154 0.334846
v 0.6675 -1.559 0.32245
v 0.7125 -1.559 0.32245
v 0.7125 -1.575154 0.334846
v 0.6675 -1.559 0.32245
v 0.6675 -1.540188 0.314658
v 0.7125 -1.540188 0.314658
v 0.7125 -1.559 0.32245
v 0.6675 -1.540188 0.314658
v 0.6675 -1.52 0.312
v 0.7125 -1.52 0.312
v 0.7125 -1.540188 0.314658
v 0.6675 -1.52 0.312
v 0.6675 -1.499812 0.314658
v 0.7125 -1.499812 0.314658
v 0.7125 -1.52 0.312
v 0.6675 -1.499812 0.314658
v 0.6675 -1.481 0.32245
v 0.7125 -1.481 0.32245
v 0.7125 -1.499812 0.314658
v 0.6675 -1.481 0.32245
v 0.6675 -1.464846 0.334846
v 0.7125 -1.464846 0.334846
v 0.7125 -1.481 0.32245
v 0.6675 -1.464846 0.334846
v 0.6675 -1.45245 0.351
v 0.7125 -1.45245 0.351
v 0.7125 -1.464846 0.334846
v 0.6675 -1.45245 0.351
v 0.6675 -1.444658 0.369812
v 0.7125 -1.444658 0.369812
v 0.7125 -1.45245 0.351
v 0.6675 -1.444658 0.369812
v 0.6675 -1.442 0.39
v 0.7125 -1.442 0.39
v 0.7125 -1.444658 0.369812
v 0.6675 -1.442 0.39
v 0.6675 -1.444658 0.410188
v 0.7125 -1.444658 0.410188
v 0.7125 -1.442 0.39
v 0.6675 -1.444658 0.410188
v 0.6675 -1.45245 0.429
v 0.7125 -1.45245 0.429
v 0.7125 -1.444658 0.410188
v 0.6675 -1.45245 0.429
v 0.6675 -1.464846 0.445154
v 0.7125 -1.464846 0.445154
v 0.7125 -1.45245 0.429
v 0.6675 -1.464846 0.445154
v 0.6675 -1.481 0.45755
v 0.7125 -1.481 0.45755
v 0.7125 -1.464846 0.445154
v 0.6675 -1.481 0.45755
v 0.6675 -1.499812 0.465342
v 0.7125 -1.499812 0.465342
v 0.7125 -1.481 0.45755
v 0.6675 -1.499812 0.465342
v 0.6675 -1.52 0.468
v 0.7125 -1.52 0.468
v 0.7125 -1.499812 0.465342
v 0.6675 -1.52 0.468
v 0.6675 -1.540188 0.465342
v 0.7125 -1.540188 0.465342
v 0.7125 -1.52 0.468
v 0.6675 -1.540188 0.465342
v 0.6675 -1.559 0.45755
v 0.7125 -1.559 0.45755
v 0.7125 -1.540188 0.465342
v 0.6675 -1.559 0.45755
v 0.6675 -1.575154 0.445154
v 0.7125 -1.575154 0.445154
v 0.7125 -1.559 0.45755
v 0.6675 -1.575154 0.445154
v 0.6675 -1.58755 0.429
v 0.7125 -1.58755 0.429
v 0.7125 -1.575154 0.445154
v 0.6675 -1.58755 0.429
v 0.6675 -1.595342 0.410188
v 0.7125 -1.595342 0.410188
v 0.7125 -1.58755 0.429
v 0.6675 -1.595342 0.410188
v 0.6675 -1.598 0.39
v 0.7125 -1.598 0.39
v 0.7125 -1.595342 0.410188
v 0.6675 -1.598 0.39
v 0.6675 -1.595342 0.369812
v 0.6675 -1.58755 0.351
v 0.6675 -1.575154 0.334846
v 0.6675 -1.559 0.32245
v 0.6675 -1.540188 0.314658
v 0.6675 -1.52 0.312
v 0.6675 -1.499812 0.314658
v 0.6675 -1.481 0.32245
v 0.6675 -1.464846 0.334846
v 0.6675 -1.45245 0.351
v 0.6675 -1.444658 0.369812
v 0.6675 -1.442 0.39
v 0.6675 -1.444658 0.410188
v 0.6675 -1.45245 0.429
v 0.6675 -1.464846 0.445154
v 0.6675 -1.481 0.45755
v 0.6675 -1.499812 0.465342
v 0.6675 -1.52 0.468
v 0.6675 -1.540188 0.465342
v 0.6675 -1.559 0.45755
v 0.6675 -1.575154 0.445154
v 0.6675 -1.58755 0.429
v 0.6675 -1.595342 0.410188
v 0.7125 -1.598 0.39
v 0.7125 -1.595342 0.369812
v 0.7125 -1.58755 0.351
v 0.7125 -1.575154 0.334846
v 0.7125 -1.559 0.32245
v 0.7125 -1.540188 0.314658
v 0.7125 -1.52 0.312
v 0.7125 -1.499812 0.314658
v 0.7125 -1.481 0.32245
v 0.7125 -1.464846 0.334846
v 0.7125 -1.45245 0.351
v 0.7125 -1.444658 0.369812
v 0.7125 -1.442 0.39
v 0.7125 -1.444658 0.410188
v 0.7125 -1.45245 0.429
v 0.7125 -1.464846 0.445154
v 0.7125 -1.481 0.45755
v 0.7125 -1.499812 0.465342
v 0.7125 -1.52 0.468
v 0.7125 -1.540188 0.465342
v 0.7125 -1.559 0.45755
v 0.7125 -1.575154 0.445154
v 0.7125 -1.58755 0.429
v 0.7125 -1.595342 0.410188
v 0.67 -1.718 0.24
v 0.67 -1.715651 0.22366
v 0.71 -1.715651 0.22366
v 0.71 -1.718 0.24
v 0.67 -1.715651 0.22366
v 0.67 -1.708793 0.208643
v 0.71 -1.708793 0.208643
v 0.71 -1.715651 0.22366
v 0.67 -1.708793 0.208643
v 0.67 -1.697982 0.196167
v 0.71 -1.697982 0.196167
v 0.71 -1.708793 0.208643
v 0.67 -1.697982 0.196167
v 0.67 -1.684094 0.187241
v 0.71 -1.684094 0.187241
v 0.71 -1.697982 0.196167
v 0.67 -1.684094 0.187241
v 0.67 -1.668254 0.18259
v 0.71 -1.668254 0.18259
v 0.71 -1.684094 0.187241
v 0.67 -1.668254 0.18259
v 0.67 -1.651746 0.18259
v 0.71 -1.651746 0.18259
v 0.71 -1.668254 0.18259
v 0.67 -1.651746 0.18259
v 0.67 -1.635906 0.187241
v 0.71 -1.635906 0.187241
v 0.71 -1.651746 0.18259
v 0.67 -1.635906 0.187241
v 0.67 -1.622018 0.196167
v 0.71 -1.622018 0.196167
v 0.71 -1.635906 0.187241
v 0.67 -1.622018 0.196167
v 0.67 -1.611207 0.208643
v 0.71 -1.611207 0.208643
v 0.71 -1.622018 0.196167
v 0.67 -1.611207 0.208643
v 0.67 -1.604349 0.22366
v 0.71 -1.604349 0.22366
v 0.71 -1.611207 0.208643
v 0.67 -1.604349 0.22366
v 0.67 -1.602 0.24
v 0.71 -1.602 0.24
v 0.71 -1.604349 0.22366
v 0.67 -1.602 0.24
v 0.67 -1.604349 0.25634
v 0.71 -1.604349 0.25634
v 0.71 -1.602 0.24
v 0.67 -1.604349 0.25634
v 0.67 -1.611207 0.271357
v 0.71 -1.611207 0.271357
v 0.71 -1.604349 0.25634
v 0.67 -1.611207 0.271357
v 0.67 -1.622018 0.283833
v 0.71 -1.622018 0.283833
v 0.71 -1.611207 0.271357
v 0.67 -1.622018 0.283833
v 0.67 -1.635906 0.292759
v 0.71 -1.635906 0.292759
v 0.71 -1.622018 0.283833
v 0.67 -1.635906 0.292759
v 0.67 -1.651746 0.29741
v 0.71 -1.651746 0.29741
v 0.71 -1.635906 0.292759
v 0.67 -1.651746 0.29741
v 0.67 -1.668254 0.29741
v 0.71 -1.668254 0.29741
v 0.71 -1.651746 0.29741
v 0.67 -1.668254 0.29741
v 0.67 -1.684094 0.292759
v 0.71 -1.684094 0.292759
v 0.71 -1.668254 0.29741
v 0.67 -1.684094 0.292759
v 0.67 -1.697982 0.283833
v 0.71 -1.697982 0.283833
v 0.71 -1.684094 0.292759
v 0.67 -1.697982 0.283833
v 0.67 -1.708793 0.271357
v 0.71 -1.708793 0.271357
v 0.71 -1.697982 0.283833
v 0.67 -1.708793 0.271357
v 0.67 -1.715651 0.25634
v 0.71 -1.715651 0.25634
v 0.71 -1.708793 0.271357
v 0.67 -1.715651 0.25634
v 0.67 -1.718 0.24
v 0.71 -1.718 0.24
v 0.71 -1.715651 0.25634
v 0.67 -1.718 0.24
v 0.67 -1.715651 0.22366
v 0.67 -1.708793 0.208643
v 0.67 -1.697982 0.196167
v 0.67 -1.684094 0.187241
v 0.67 -1.668254 0.18259
v 0.67 -1.651746 0.18259
v 0.67 -1.635906 0.187241
v 0.67 -1.622018 0.196167
v 0.67 -1.611207 0.208643
v 0.67 -1.604349 0.22366
v 0.67 -1.602 0.24
v 0.67 -1.604349 0.25634
v 0.67 -1.611207 0.271357
v 0.67 -1.622018 0.283833
v 0.67 -1.635906 0.292759
v 0.67 -1.651746 0.29741
v 0.67 -1.668254 0.29741
v 0.67 -1.684094 0.292759
v 0.67 -1.697982 0.283833
v 0.67 -1.708793 0.271357
v 0.67 -1.715651 0.25634
v 0.71 -1.718 0.24
v 0.71 -1.715651 0.22366
v 0.71 -1.708793 0.208643
v 0.71 -1.697982 0.196167
v 0.71 -1.684094 0.187241
v 0.71 -1.668254 0.18259
v 0.71 -1.651746 0.18259
v 0.71 -1.635906 0.187241
v 0.71 -1.622018 0.196167
v 0.71 -1.611207 0.208643
v 0.71 -1.604349 0.22366
v 0.71 -1.602 0.24
v 0.71 -1.604349 0.25634
v 0.71 -1.611207 0.271357
v 0.71 -1.622018 0.283833
v 0.71 -1.635906 0.292759
v 0.71 -1.651746 0.29741
v 0.71 -1.668254 0.29741
v 0.71 -1.684094 0.292759
v 0.71 -1.697982 0.283833
v 0.71 -1.708793 0.271357
v 0.71 -1.715651 0.25634
v 0.043 -1.52 0.39
v 0.041535 -1.52 0.378871
v 0.041535 -1.02 0.378871
v 0.043 -1.02 0.39
v 0.041535 -1.52 0.378871
v 0.037239 -1.52 0.3685
v 0.037239 -1.02 0.3685
v 0.041535 -1.02 0.378871
v 0.037239 -1.52 0.3685
v 0.030406 -1.52 0.359594
v 0.030406 -1.02 0.359594
v 0.037239 -1.02 0.3685
v 0.030406 -1.52 0.359594
v 0.0215 -1.52 0.352761
v 0.0215 -1.02 0.352761
v 0.030406 -1.02 0.359594
v 0.0215 -1.52 0.352761
v 0.011129 -1.52 0.348465
v 0.011129 -1.02 0.348465
v 0.0215 -1.02 0.352761
v 0.011129 -1.52 0.348465
v 0 -1.52 0.347
v 0 -1.02 0.347
v 0.011129 -1.02 0.348465
v 0 -1.52 0.347
v -0.011129 -1.52 0.348465
v -0.011129 -1.02 0.348465
v 0 -1.02 0.347
v -0.011129 -1.52 0.348465
v -0.0215 -1.52 0.352761
v -0.0215 -1.02 0.352761
v -0.011129 -1.02 0.348465
v -0.0215 -1.52 0.352761
v -0.030406 -1.52 0.359594
v -0.030406 -1.02 0.359594
v -0.0215 -1.02 0.352761
v -0.030406 -1.52 0.359594
v -0.037239 -1.52 0.3685
v -0.037239 -1.02 0.3685
v -0.030406 -1.02 0.359594
v -0.037239 -1.52 0.3685
v -0.041535 -1.52 0.378871
v -0.041535 -1.02 0.378871
v -0.037239 -1.02 0.3685
v -0.041535 -1.52 0.378871
v -0.043 -1.52 0.39
v -0.043 -1.02 0.39
v -0.041535 -1.02 0.378871
v -0.043 -1.52 0.39
v -0.041535 -1.52 0.401129
v -0.041535 -1.02 0.401129
v -0.043 -1.02 0.39
v -0.041535 -1.52 0.401129
v -0.037239 -1.52 0.4115
v -0.037239 -1.02 0.4115
v -0.041535 -1.02 0.401129
v -0.037239 -1.52 0.4115
v -0.030406 -1.52 0.420406
v -0.030406 -1.02 0.420406
v -0.037239 -1.02 0.4115
v -0.030406 -1.52 0.420406
v -0.0215 -1.52 0.427239
v -0.0215 -1.02 0.427239
v -0.030406 -1.02 0.420406
v -0.0215 -1.52 0.427239
v -0.011129 -1.52 0.431535
v -0.011129 -1.02 0.431535
v -0.0215 -1.02 0.427239
v -0.011129 -1.52 0.431535
v 0 -1.52 0.433
v 0 -1.02 0.433
v -0.011129 -1.02 0.431535
v 0 -1.52 0.433
v 0.011129 -1.52 0.431535
v 0.011129 -1.02 0.431535
v 0 -1.02 0.433
v 0.011129 -1.52 0.431535
v 0.0215 -1.52 0.427239
v 0.0215 -1.02 0.427239
v 0.011129 -1.02 0.431535
v 0.0215 -1.52 0.427239
v 0.030406 -1.52 0.420406
v 0.030406 -1.02 0.420406
v 0.0215 -1.02 0.427239
v 0.030406 -1.52 0.420406
v 0.037239 -1.52 0.4115
v 0.037239 -1.02 0.4115
v 0.030406 -1.02 0.420406
v 0.037239 -1.52 0.4115
v 0.041535 -1.52 0.401129
v 0.041535 -1.02 0.401129
v 0.037239 -1.02 0.4115
v 0.041535 -1.52 0.401129
v 0.043 -1.52 0.39
v 0.043 -1.02 0.39
v 0.041535 -1.02 0.401129
v 0.041535 -1.52 0.401129
v 0.037239 -1.52 0.4115
v 0.030406 -1.52 0.420406
v 0.0215 -1.52 0.427239
v 0.011129 -1.52 0.431535
v 0 -1.52 0.433
v -0.011129 -1.52 0.431535
v -0.0215 -1.52 0.427239
v -0.030406 -1.52 0.420406
v -0.037239 -1.52 0.4115
v -0.041535 -1.52 0.401129
v -0.043 -1.52 0.39
v -0.041535 -1.52 0.378871
v -0.037239 -1.52 0.3685
v -0.030406 -1.52 0.359594
v -0.0215 -1.52 0.352761
v -0.011129 -1.52 0.348465
v 0 -1.52 0.347
v 0.011129 -1.52 0.348465
v 0.0215 -1.52 0.352761
v 0.030406 -1.52 0.359594
v 0.037239 -1.52 0.3685
v 0.041535 -1.52 0.378871
v 0.043 -1.52 0.39
v 0.043 -1.02 0.39
v 0.041535 -1.02 0.378871
v 0.037239 -1.02 0.3685
v 0.030406 -1.02 0.359594
v 0.0215 -1.02 0.352761
v 0.011129 -1.02 0.348465
v 0 -1.02 0.347
v -0.011129 -1.02 0.348465
v -0.0215 -1.02 0.352761
v -0.030406 -1.02 0.359594
v -0.037239 -1.02 0.3685
v -0.041535 -1.02 0.378871
v -0.043 -1.02 0.39
v -0.041535 -1.02 0.401129
v -0.037239 -1.02 0.4115
v -0.030406 -1.02 0.420406
v -0.0215 -1.02 0.427239
v -0.011129 -1.02 0.431535
v 0 -1.02 0.433
v 0.011129 -1.02 0.431535
v 0.0215 -1.02 0.427239
v 0.030406 -1.02 0.420406
v 0.037239 -1.02 0.4115
v 0.041535 -1.02 0.401129
v -0.043 -1.03 0.39
v -0.041535 -1.041129 0.39
v -0.041535 -1.041129 0.73
v -0.043 -1.03 0.73
v -0.041535 -1.041129 0.39
v -0.037239 -1.0515 0.39
v -0.037239 -1.0515 0.73
v -0.041535 -1.041129 0.73
v -0.037239 -1.0515 0.39
v -0.030406 -1.060406 0.39
v -0.030406 -1.060406 0.73
v -0.037239 -1.0515 0.73
v -0.030406 -1.060406 0.39
v -0.0215 -1.067239 0.39
v -0.0215 -1.067239 0.73
v -0.030406 -1.060406 0.73
v -0.0215 -1.067239 0.39
v -0.011129 -1.071535 0.39
v -0.011129 -1.071535 0.73
v -0.0215 -1.067239 0.73
v -0.011129 -1.071535 0.39
v 0 -1.073 0.39
v 0 -1.073 0.73
v -0.011129 -1.071535 0.73
v 0 -1.073 0.39
v 0.011129 -1.071535 0.39
v 0.011129 -1.071535 0.73
v 0 -1.073 0.73
v 0.011129 -1.071535 0.39
v 0.0215 -1.067239 0.39
v 0.0215 -1.067239 0.73
v 0.011129 -1.071535 0.73
v 0.0215 -1.067239 0.39
v 0.030406 -1.060406 0.39
v 0.030406 -1.060406 0.73
v 0.0215 -1.067239 0.73
v 0.030406 -1.060406 0.39
v 0.037239 -1.0515 0.39
v 0.037239 -1.0515 0.73
v 0.030406 -1.060406 0.73
v 0.037239 -1.0515 0.39
v 0.041535 -1.041129 0.39
v 0.041535 -1.041129 0.73
v 0.037239 -1.0515 0.73
v 0.041535 -1.041129 0.39
v 0.043 -1.03 0.39
v 0.043 -1.03 0.73
v 0.041535 -1.041129 0.73
v 0.043 -1.03 0.39
v 0.041535 -1.018871 0.39
v 0.041535 -1.018871 0.73
v 0.043 -1.03 0.73
v 0.041535 -1.018871 0.39
v 0.037239 -1.0085 0.39
v 0.037239 -1.0085 0.73
v 0.041535 -1.018871 0.73
v 0.037239 -1.0085 0.39
v 0.030406 -0.999594 0.39
v 0.030406 -0.999594 0.73
v 0.037239 -1.0085 0.73
v 0.030406 -0.999594 0.39
v 0.0215 -0.992761 0.39
v 0.0215 -0.992761 0.73
v 0.030406 -0.999594 0.73
v 0.0215 -0.992761 0.39
v 0.011129 -0.988465 0.39
v 0.011129 -0.988465 0.73
v 0.0215 -0.992761 0.73
v 0.011129 -0.988465 0.39
v 0 -0.987 0.39
v 0 -0.987 0.73
v 0.011129 -0.988465 0.73
v 0 -0.987 0.39
v -0.011129 -0.988465 0.39
v -0.011129 -0.988465 0.73
v 0 -0.987 0.73
v -0.011129 -0.988465 0.39
v -0.0215 -0.992761 0.39
v -0.0215 -0.992761 0.73
v -0.011129 -0.988465 0.73
v -0.0215 -0.992761 0.39
v -0.030406 -0.999594 0.39
v -0.030406 -0.999594 0.73
v -0.0215 -0.992761 0.73
v -0.030406 -0.999594 0.39
v -0.037239 -1.0085 0.39
v -0.037239 -1.0085 0.73
v -0.030406 -0.999594 0.73
v -0.037239 -1.0085 0.39
v -0.041535 -1.018871 0.39
v -0.041535 -1.018871 0.73
v -0.037239 -1.0085 0.73
v -0.041535 -1.018871 0.39
v -0.043 -1.03 0.39
v -0.043 -1.03 0.73
v -0.041535 -1.018871 0.73
v -0.041535 -1.018871 0.39
v -0.037239 -1.0085 0.39
v -0.030406 -0.999594 0.39
v -0.0215 -0.992761 0.39
v -0.011129 -0.988465 0.39
v 0 -0.987 0.39
v 0.011129 -0.988465 0.39
v 0.0215 -0.992761 0.39
v 0.030406 -0.999594 0.39
v 0.037239 -1.0085 0.39
v 0.041535 -1.018871 0.39
v 0.043 -1.03 0.39
v 0.041535 -1.041129 0.39
v 0.037239 -1.0515 0.39
v 0.030406 -1.060406 0.39
v 0.0215 -1.067239 0.39
v 0.011129 -1.071535 0.39
v 0 -1.073 0.39
v -0.011129 -1.071535 0.39
v -0.0215 -1.067239 0.39
v -0.030406 -1.060406 0.39
v -0.037239 -1.0515 0.39
v -0.041535 -1.041129 0.39
v -0.043 -1.03 0.39
v -0.043 -1.03 0.73
v -0.041535 -1.041129 0.73
v -0.037239 -1.0515 0.73
v -0.030406 -1.060406 0.73
v -0.0215 -1.067239 0.73
v -0.011129 -1.071535 0.73
v 0 -1.073 0.73
v 0.011129 -1.071535 0.73
v 0.0215 -1.067239 0.73
v 0.030406 -1.060406 0.73
v 0.037239 -1.0515 0.73
v 0.041535 -1.041129 0.73
v 0.043 -1.03 0.73
v 0.041535 -1.018871 0.73
v 0.037239 -1.0085 0.73
v 0.030406 -0.999594 0.73
v 0.0215 -0.992761 0.73
v 0.011129 -0.988465 0.73
v 0 -0.987 0.73
v -0.011129 -0.988465 0.73
v -0.0215 -0.992761 0.73
v -0.030406 -0.999594 0.73
v -0.037239 -1.0085 0.73
v -0.041535 -1.018871 0.73
v -0.084 -1.02 0.6975
v -0.081138 -1.041741 0.6975
v -0.081138 -1.041741 0.7425
v -0.084 -1.02 0.7425
v -0.081138 -1.041741 0.6975
v -0.072746 -1.062 0.6975
v -0.072746 -1.062 0.7425
v -0.081138 -1.041741 0.7425
v -0.072746 -1.062 0.6975
v -0.059397 -1.079397 0.6975
v -0.059397 -1.079397 0.7425
v -0.072746 -1.062 0.7425
v -0.059397 -1.079397 0.6975
v -0.042 -1.092746 0.6975
v -0.042 -1.092746 0.7425
v -0.059397 -1.079397 0.7425
v -0.042 -1.092746 0.6975
v -0.021741 -1.101138 0.6975
v -0.021741 -1.101138 0.7425
v -0.042 -1.092746 0.7425
v -0.021741 -1.101138 0.6975
v 0 -1.104 0.6975
v 0 -1.104 0.7425
v -0.021741 -1.101138 0.7425
v 0 -1.104 0.6975
v 0.021741 -1.101138 0.6975
v 0.021741 -1.101138 0.7425
v 0 -1.104 0.7425
v 0.021741 -1.101138 0.6975
v 0.042 -1.092746 0.6975
v 0.042 -1.092746 0.7425
v 0.021741 -1.101138 0.7425
v 0.042 -1.092746 0.6975
v 0.059397 -1.079397 0.6975
v 0.059397 -1.079397 0.7425
v 0.042 -1.092746 0.7425
v 0.059397 -1.079397 0.6975
v 0.072746 -1.062 0.6975
v 0.072746 -1.062 0.7425
v 0.059397 -1.079397 0.7425
v 0.072746 -1.062 0.6975
v 0.081138 -1.041741 0.6975
v 0.081138 -1.041741 0.7425
v 0.072746 -1.062 0.7425
v 0.081138 -1.041741 0.6975
v 0.084 -1.02 0.6975
v 0.084 -1.02 0.7425
v 0.081138 -1.041741 0.7425
v 0.084 -1.02 0.6975
v 0.081138 -0.998259 0.6975
v 0.081138 -0.998259 0.7425
v 0.084 -1.02 0.7425
v 0.081138 -0.998259 0.6975
v 0.072746 -0.978 0.6975
v 0.072746 -0.978 0.7425
v 0.081138 -0.998259 0.7425
v 0.072746 -0.978 0.6975
v 0.059397 -0.960603 0.6975
v 0.059397 -0.960603 0.7425
v 0.072746 -0.978 0.7425
v 0.059397 -0.960603 0.6975
v 0.042 -0.947254 0.6975
v 0.042 -0.947254 0.7425
v 0.059397 -0.960603 0.7425
v 0.042 -0.947254 0.6975
v 0.021741 -0.938862 0.6975
v 0.021741 -0.938862 0.7425
v 0.042 -0.947254 0.7425
v 0.021741 -0.938862 0.6975
v 0 -0.936 0.6975
v 0 -0.936 0.7425
v 0.021741 -0.938862 0.7425
v 0 -0.936 0.6975
v -0.021741 -0.938862 0.6975
v -0.021741 -0.938862 0.7425
v 0 -0.936 0.7425
v -0.021741 -0.938862 0.6975
v -0.042 -0.947254 0.6975
v -0.042 -0.947254 0.7425
v -0.021741 -0.938862 0.7425
v -0.042 -0.947254 0.6975
v -0.059397 -0.960603 0.6975
v -0.059397 -0.960603 0.7425
v -0.042 -0.947254 0.7425
v -0.059397 -0.960603 0.6975
v -0.072746 -0.978 0.6975
v -0.072746 -0.978 0.7425
v -0.059397 -0.960603 0.7425
v -0.072746 -0.978 0.6975
v -0.081138 -0.998259 0.6975
v -0.081138 -0.998259 0.7425
v -0.072746 -0.978 0.7425
v -0.081138 -0.998259 0.6975
v -0.084 -1.02 0.6975
v -0.084 -1.02 0.7425
v -0.081138 -0.998259 0.7425
v -0.081138 -0.998259 0.6975
v -0.072746 -0.978 0.6975
v -0.059397 -0.960603 0.6975
v -0.042 -0.947254 0.6975
v -0.021741 -0.938862 0.6975
v 0 -0.936 0.6975
v 0.021741 -0.938862 0.6975
v 0.042 -0.947254 0.6975
v 0.059397 -0.960603 0.6975
v 0.072746 -0.978 0.6975
v 0.081138 -0.998259 0.6975
v 0.084 -1.02 0.6975
v 0.081138 -1.041741 0.6975
v 0.072746 -1.062 0.6975
v 0.059397 -1.079397 0.6975
v 0.042 -1.092746 0.6975
v 0.021741 -1.101138 0.6975
v 0 -1.104 0.6975
v -0.021741 -1.101138 0.6975
v -0.042 -1.092746 0.6975
v -0.059397 -1.079397 0.6975
v -0.072746 -1.062 0.6975
v -0.081138 -1.041741 0.6975
v -0.084 -1.02 0.6975
v -0.081138 -0.998259 0.7425
v -0.072746 -0.978 0.7425
v -0.059397 -0.960603 0.7425
v -0.042 -0.947254 0.7425
v -0.021741 -0.938862 0.7425
v 0 -0.936 0.7425
v 0.021741 -0.938862 0.7425
v 0.042 -0.947254 0.7425
v 0.059397 -0.960603 0.7425
v 0.072746 -0.978 0.7425
v 0.081138 -0.998259 0.7425
v 0.084 -1.02 0.7425
v 0.081138 -1.041741 0.7425
v 0.072746 -1.062 0.7425
v 0.059397 -1.079397 0.7425
v 0.042 -1.092746 0.7425
v 0.021741 -1.101138 0.7425
v 0 -1.104 0.7425
v -0.021741 -1.101138 0.7425
v -0.042 -1.092746 0.7425
v -0.059397 -1.079397 0.7425
v -0.072746 -1.062 0.7425
v -0.081138 -1.041741 0.7425
v -0.084 -1.02 0.7425
v 0.092 -1.26 0.39
v 0.089327 -1.26 0.367983
v 0.089327 -1.14 0.367983
v 0.092 -1.14 0.39
v 0.089327 -1.26 0.367983
v 0.081462 -1.26 0.347245
v 0.081462 -1.14 0.347245
v 0.089327 -1.14 0.367983
v 0.081462 -1.26 0.347245
v 0.068863 -1.26 0.328993
v 0.068863 -1.14 0.328993
v 0.081462 -1.14 0.347245
v 0.068863 -1.26 0.328993
v 0.052262 -1.26 0.314285
v 0.052262 -1.14 0.314285
v 0.068863 -1.14 0.328993
v 0.052262 -1.26 0.314285
v 0.032624 -1.26 0.303979
v 0.032624 -1.14 0.303979
v 0.052262 -1.14 0.314285
v 0.032624 -1.26 0.303979
v 0.011089 -1.26 0.298671
v 0.011089 -1.14 0.298671
v 0.032624 -1.14 0.303979
v 0.011089 -1.26 0.298671
v -0.011089 -1.26 0.298671
v -0.011089 -1.14 0.298671
v 0.011089 -1.14 0.298671
v -0.011089 -1.26 0.298671
v -0.032624 -1.26 0.303979
v -0.032624 -1.14 0.303979
v -0.011089 -1.14 0.298671
v -0.032624 -1.26 0.303979
v -0.052262 -1.26 0.314285
v -0.052262 -1.14 0.314285
v -0.032624 -1.14 0.303979
v -0.052262 -1.26 0.314285
v -0.068863 -1.26 0.328993
v -0.068863 -1.14 0.328993
v -0.052262 -1.14 0.314285
v -0.068863 -1.26 0.328993
v -0.081462 -1.26 0.347245
v -0.081462 -1.14 0.347245
v -0.068863 -1.14 0.328993
v -0.081462 -1.26 0.347245
v -0.089327 -1.26 0.367983
v -0.089327 -1.14 0.367983
v -0.081462 -1.14 0.347245
v -0.089327 -1.26 0.367983
v -0.092 -1.26 0.39
v -0.092 -1.14 0.39
v -0.089327 -1.14 0.367983
v -0.092 -1.26 0.39
v -0.089327 -1.26 0.412017
v -0.089327 -1.14 0.412017
v -0.092 -1.14 0.39
v -0.089327 -1.26 0.412017
v -0.081462 -1.26 0.432755
v -0.081462 -1.14 0.432755
v -0.089327 -1.14 0.412017
v -0.081462 -1.26 0.432755
v -0.068863 -1.26 0.451007
v -0.068863 -1.14 0.451007
v -0.081462 -1.14 0.432755
v -0.068863 -1.26 0.451007
v -0.052262 -1.26 0.465715
v -0.052262 -1.14 0.465715
v -0.068863 -1.14 0.451007
v -0.052262 -1.26 0.465715
v -0.032624 -1.26 0.476021
v -0.032624 -1.14 0.476021
v -0.052262 -1.14 0.465715
v -0.032624 -1.26 0.476021
v -0.011089 -1.26 0.481329
v -0.011089 -1.14 0.481329
v -0.032624 -1.14 0.476021
v -0.011089 -1.26 0.481329
v 0.011089 -1.26 0.481329
v 0.011089 -1.14 0.481329
v -0.011089 -1.14 0.481329
v 0.011089 -1.26 0.481329
v 0.032624 -1.26 0.476021
v 0.032624 -1.14 0.476021
v 0.011089 -1.14 0.481329
v 0.032624 -1.26 0.476021
v 0.052262 -1.26 0.465715
v 0.052262 -1.14 0.465715
v 0.032624 -1.14 0.476021
v 0.052262 -1.26 0.465715
v 0.068863 -1.26 0.451007
v 0.068863 -1.14 0.451007
v 0.052262 -1.14 0.465715
v 0.068863 -1.26 0.451007
v 0.081462 -1.26 0.432755
v 0.081462 -1.14 0.432755
v 0.068863 -1.14 0.451007
v 0.081462 -1.26 0.432755
v 0.089327 -1.26 0.412017
v 0.089327 -1.14 0.412017
v 0.081462 -1.14 0.432755
v 0.089327 -1.26 0.412017
v 0.092 -1.26 0.39
v 0.092 -1.14 0.39
v 0.089327 -1.14 0.412017
v 0.089327 -1.26 0.412017
v 0.081462 -1.26 0.432755
v 0.068863 -1.26 0.451007
v 0.052262 -1.26 0.465715
v 0.032624 -1.26 0.476021
v 0.011089 -1.26 0.481329
v -0.011089 -1.26 0.481329
v -0.032624 -1.26 0.476021
v -0.052262 -1.26 0.465715
v -0.068863 -1.26 0.451007
v -0.081462 -1.26 0.432755
v -0.089327 -1.26 0.412017
v -0.092 -1.26 0.39
v -0.089327 -1.26 0.367983
v -0.081462 -1.26 0.347245
v -0.068863 -1.26 0.328993
v -0.052262 -1.26 0.314285
v -0.032624 -1.26 0.303979
v -0.011089 -1.26 0.298671
v 0.011089 -1.26 0.298671
v 0.032624 -1.26 0.303979
v 0.052262 -1.26 0.314285
v 0.068863 -1.26 0.328993
v 0.081462 -1.26 0.347245
v 0.089327 -1.26 0.367983
v 0.092 -1.26 0.39
v 0.089327 -1.14 0.412017
v 0.081462 -1.14 0.432755
v 0.068863 -1.14 0.451007
v 0.052262 -1.14 0.465715
v 0.032624 -1.14 0.476021
v 0.011089 -1.14 0.481329
v -0.011089 -1.14 0.481329
v -0.032624 -1.14 0.476021
v -0.052262 -1.14 0.465715
v -0.068863 -1.14 0.451007
v -0.081462 -1.14 0.432755
v -0.089327 -1.14 0.412017
v -0.092 -1.14 0.39
v -0.089327 -1.14 0.367983
v -0.081462 -1.14 0.347245
v -0.068863 -1.14 0.328993
v -0.052262 -1.14 0.314285
v -0.032624 -1.14 0.303979
v -0.011089 -1.14 0.298671
v 0.011089 -1.14 0.298671
v 0.032624 -1.14 0.303979
v 0.052262 -1.14 0.314285
v 0.068863 -1.14 0.328993
v 0.081462 -1.14 0.347245
v 0.089327 -1.14 0.367983
v 0.092 -1.14 0.39
v -0.022 -1.2 0.41
v -0.020325 -1.208419 0.41
v -0.020325 -1.208419 0.63
v -0.022 -1.2 0.63
v -0.020325 -1.208419 0.41
v -0.015556 -1.215556 0.41
v -0.015556 -1.215556 0.63
v -0.020325 -1.208419 0.63
v -0.015556 -1.215556 0.41
v -0.008419 -1.220325 0.41
v -0.008419 -1.220325 0.63
v -0.015556 -1.215556 0.63
v -0.008419 -1.220325 0.41
v 0 -1.222 0.41
v 0 -1.222 0.63
v -0.008419 -1.220325 0.63
v 0 -1.222 0.41
v 0.008419 -1.220325 0.41
v 0.008419 -1.220325 0.63
v 0 -1.222 0.63
v 0.008419 -1.220325 0.41
v 0.015556 -1.215556 0.41
v 0.015556 -1.215556 0.63
v 0.008419 -1.220325 0.63
v 0.015556 -1.215556 0.41
v 0.020325 -1.208419 0.41
v 0.020325 -1.208419 0.63
v 0.015556 -1.215556 0.63
v 0.020325 -1.208419 0.41
v 0.022 -1.2 0.41
v 0.022 -1.2 0.63
v 0.020325 -1.208419 0.63
v 0.022 -1.2 0.41
v 0.020325 -1.191581 0.41
v 0.020325 -1.191581 0.63
v 0.022 -1.2 0.63
v 0.020325 -1.191581 0.41
v 0.015556 -1.184444 0.41
v 0.015556 -1.184444 0.63
v 0.020325 -1.191581 0.63
v 0.015556 -1.184444 0.41
v 0.008419 -1.179675 0.41
v 0.008419 -1.179675 0.63
v 0.015556 -1.184444 0.63
v 0.008419 -1.179675 0.41
v 0 -1.178 0.41
v 0 -1.178 0.63
v 0.008419 -1.179675 0.63
v 0 -1.178 0.41
v -0.008419 -1.179675 0.41
v -0.008419 -1.179675 0.63
v 0 -1.178 0.63
v -0.008419 -1.179675 0.41
v -0.015556 -1.184444 0.41
v -0.015556 -1.184444 0.63
v -0.008419 -1.179675 0.63
v -0.015556 -1.184444 0.41
v -0.020325 -1.191581 0.41
v -0.020325 -1.191581 0.63
v -0.015556 -1.184444 0.63
v -0.020325 -1.191581 0.41
v -0.022 -1.2 0.41
v -0.022 -1.2 0.63
v -0.020325 -1.191581 0.63
v -0.022 -1.2 0.41
v -0.020325 -1.208419 0.41
v -0.015556 -1.215556 0.41
v -0.008419 -1.220325 0.41
v 0 -1.222 0.41
v 0.008419 -1.220325 0.41
v 0.015556 -1.215556 0.41
v 0.020325 -1.208419 0.41
v 0.022 -1.2 0.41
v 0.020325 -1.191581 0.41
v 0.015556 -1.184444 0.41
v 0.008419 -1.179675 0.41
v 0 -1.178 0.41
v -0.008419 -1.179675 0.41
v -0.015556 -1.184444 0.41
v -0.020325 -1.191581 0.41
v -0.022 -1.2 0.63
v -0.020325 -1.208419 0.63
v -0.015556 -1.215556 0.63
v -0.008419 -1.220325 0.63
v 0 -1.222 0.63
v 0.008419 -1.220325 0.63
v 0.015556 -1.215556 0.63
v 0.020325 -1.208419 0.63
v 0.022 -1.2 0.63
v 0.020325 -1.191581 0.63
v 0.015556 -1.184444 0.63
v 0.008419 -1.179675 0.63
v 0 -1.178 0.63
v -0.008419 -1.179675 0.63
v -0.015556 -1.184444 0.63
v -0.020325 -1.191581 0.63
v -0.119 -1.2 0.65
v -0.114945 -1.230799 0.65
v -0.110984 -1.229738 0.659899
v -0.114899 -1.2 0.659899
v -0.114899 -1.2 0.659899
v -0.110984 -1.229738 0.659899
v -0.101422 -1.227176 0.664
v -0.105 -1.2 0.664
v -0.105 -1.2 0.664
v -0.101422 -1.227176 0.664
v -0.09186 -1.224614 0.659899
v -0.095101 -1.2 0.659899
v -0.095101 -1.2 0.659899
v -0.09186 -1.224614 0.659899
v -0.087899 -1.223553 0.65
v -0.091 -1.2 0.65
v -0.091 -1.2 0.65
v -0.087899 -1.223553 0.65
v -0.09186 -1.224614 0.640101
v -0.095101 -1.2 0.640101
v -0.095101 -1.2 0.640101
v -0.09186 -1.224614 0.640101
v -0.101422 -1.227176 0.636
v -0.105 -1.2 0.636
v -0.105 -1.2 0.636
v -0.101422 -1.227176 0.636
v -0.110984 -1.229738 0.640101
v -0.114899 -1.2 0.640101
v -0.114899 -1.2 0.640101
v -0.110984 -1.229738 0.640101
v -0.114945 -1.230799 0.65
v -0.119 -1.2 0.65
v -0.114945 -1.230799 0.65
v -0.103057 -1.2595 0.65
v -0.099506 -1.25745 0.659899
v -0.110984 -1.229738 0.659899
v -0.110984 -1.229738 0.659899
v -0.099506 -1.25745 0.659899
v -0.090933 -1.2525 0.664
v -0.101422 -1.227176 0.664
v -0.101422 -1.227176 0.664
v -0.090933 -1.2525 0.664
v -0.082359 -1.24755 0.659899
v -0.09186 -1.224614 0.659899
v -0.09186 -1.224614 0.659899
v -0.082359 -1.24755 0.659899
v -0.078808 -1.2455 0.65
v -0.087899 -1.223553 0.65
v -0.087899 -1.223553 0.65
v -0.078808 -1.2455 0.65
v -0.082359 -1.24755 0.640101
v -0.09186 -1.224614 0.640101
v -0.09186 -1.224614 0.640101
v -0.082359 -1.24755 0.640101
v -0.090933 -1.2525 0.636
v -0.101422 -1.227176 0.636
v -0.101422 -1.227176 0.636
v -0.090933 -1.2525 0.636
v -0.099506 -1.25745 0.640101
v -0.110984 -1.229738 0.640101
v -0.110984 -1.229738 0.640101
v -0.099506 -1.25745 0.640101
v -0.103057 -1.2595 0.65
v -0.114945 -1.230799 0.65
v -0.103057 -1.2595 0.65
v -0.084146 -1.284146 0.65
v -0.081246 -1.281246 0.659899
v -0.099506 -1.25745 0.659899
v -0.099506 -1.25745 0.659899
v -0.081246 -1.281246 0.659899
v -0.074246 -1.274246 0.664
v -0.090933 -1.2525 0.664
v -0.090933 -1.2525 0.664
v -0.074246 -1.274246 0.664
v -0.067246 -1.267246 0.659899
v -0.082359 -1.24755 0.659899
v -0.082359 -1.24755 0.659899
v -0.067246 -1.267246 0.659899
v -0.064347 -1.264347 0.65
v -0.078808 -1.2455 0.65
v -0.078808 -1.2455 0.65
v -0.064347 -1.264347 0.65
v -0.067246 -1.267246 0.640101
v -0.082359 -1.24755 0.640101
v -0.082359 -1.24755 0.640101
v -0.067246 -1.267246 0.640101
v -0.074246 -1.274246 0.636
v -0.090933 -1.2525 0.636
v -0.090933 -1.2525 0.636
v -0.074246 -1.274246 0.636
v -0.081246 -1.281246 0.640101
v -0.099506 -1.25745 0.640101
v -0.099506 -1.25745 0.640101
v -0.081246 -1.281246 0.640101
v -0.084146 -1.284146 0.65
v -0.103057 -1.2595 0.65
v -0.084146 -1.284146 0.65
v -0.0595 -1.303057 0.65
v -0.05745 -1.299506 0.659899
v -0.081246 -1.281246 0.659899
v -0.081246 -1.281246 0.659899
v -0.05745 -1.299506 0.659899
v -0.0525 -1.290933 0.664
v -0.074246 -1.274246 0.664
v -0.074246 -1.274246 0.664
v -0.0525 -1.290933 0.664
v -0.04755 -1.282359 0.659899
v -0.067246 -1.267246 0.659899
v -0.067246 -1.267246 0.659899
v -0.04755 -1.282359 0.659899
v -0.0455 -1.278808 0.65
v -0.064347 -1.264347 0.65
v -0.064347 -1.264347 0.65
v -0.0455 -1.278808 0.65
v -0.04755 -1.282359 0.640101
v -0.067246 -1.267246 0.640101
v -0.067246 -1.267246 0.640101
v -0.04755 -1.282359 0.640101
v -0.0525 -1.290933 0.636
v -0.074246 -1.274246 0.636
v -0.074246 -1.274246 0.636
v -0.0525 -1.290933 0.636
v -0.05745 -1.299506 0.640101
v -0.081246 -1.281246 0.640101
v -0.081246 -1.281246 0.640101
v -0.05745 -1.299506 0.640101
v -0.0595 -1.303057 0.65
v -0.084146 -1.284146 0.65
v -0.0595 -1.303057 0.65
v -0.030799 -1.314945 0.65
v -0.029738 -1.310984 0.659899
v -0.05745 -1.299506 0.659899
v -0.05745 -1.299506 0.659899
v -0.029738 -1.310984 0.659899
v -0.027176 -1.301422 0.664
v -0.0525 -1.290933 0.664
v -0.0525 -1.290933 0.664
v -0.027176 -1.301422 0.664
v -0.024614 -1.29186 0.659899
v -0.04755 -1.282359 0.659899
v -0.04755 -1.282359 0.659899
v -0.024614 -1.29186 0.659899
v -0.023553 -1.287899 0.65
v -0.0455 -1.278808 0.65
v -0.0455 -1.278808 0.65
v -0.023553 -1.287899 0.65
v -0.024614 -1.29186 0.640101
v -0.04755 -1.282359 0.640101
v -0.04755 -1.282359 0.640101
v -0.024614 -1.29186 0.640101
v -0.027176 -1.301422 0.636
v -0.0525 -1.290933 0.636
v -0.0525 -1.290933 0.636
v -0.027176 -1.301422 0.636
v -0.029738 -1.310984 0.640101
v -0.05745 -1.299506 0.640101
v -0.05745 -1.299506 0.640101
v -0.029738 -1.310984 0.640101
v -0.030799 -1.314945 0.65
v -0.0595 -1.303057 0.65
v -0.030799 -1.314945 0.65
v 0 -1.319 0.65
v 0 -1.314899 0.659899
v -0.029738 -1.310984 0.659899
v -0.029738 -1.310984 0.659899
v 0 -1.314899 0.659899
v 0 -1.305 0.664
v -0.027176 -1.301422 0.664
v -0.027176 -1.301422 0.664
v 0 -1.305 0.664
v 0 -1.295101 0.659899
v -0.024614 -1.29186 0.659899
v -0.024614 -1.29186 0.659899
v 0 -1.295101 0.659899
v 0 -1.291 0.65
v -0.023553 -1.287899 0.65
v -0.023553 -1.287899 0.65
v 0 -1.291 0.65
v 0 -1.295101 0.640101
v -0.024614 -1.29186 0.640101
v -0.024614 -1.29186 0.640101
v 0 -1.295101 0.640101
v 0 -1.305 0.636
v -0.027176 -1.301422 0.636
v -0.027176 -1.301422 0.636
v 0 -1.305 0.636
v 0 -1.314899 0.640101
v -0.029738 -1.310984 0.640101
v -0.029738 -1.310984 0.640101
v 0 -1.314899 0.640101
v 0 -1.319 0.65
v -0.030799 -1.314945 0.65
v 0 -1.319 0.65
v 0.030799 -1.314945 0.65
v 0.029738 -1.310984 0.659899
v 0 -1.314899 0.659899
v 0 -1.314899 0.659899
v 0.029738 -1.310984 0.659899
v 0.027176 -1.301422 0.664
v 0 -1.305 0.664
v 0 -1.305 0.664
v 0.027176 -1.301422 0.664
v 0.024614 -1.29186 0.659899
v 0 -1.295101 0.659899
v 0 -1.295101 0.659899
v 0.024614 -1.29186 0.659899
v 0.023553 -1.287899 0.65
v 0 -1.291 0.65
v 0 -1.291 0.65
v 0.023553 -1.287899 0.65
v 0.024614 -1.29186 0.640101
v 0 -1.295101 0.640101
v 0 -1.295101 0.640101
v 0.024614 -1.29186 0.640101
v 0.027176 -1.301422 0.636
v 0 -1.305 0.636
v 0 -1.305 0.636
v 0.027176 -1.301422 0.636
v 0.029738 -1.310984 0.640101
v 0 -1.314899 0.640101
v 0 -1.314899 0.640101
v 0.029738 -1.310984 0.640101
v 0.030799 -1.314945 0.65
v 0 -1.319 0.65
v 0.030799 -1.314945 0.65
v 0.0595 -1.303057 0.65
v 0.05745 -1.299506 0.659899
v 0.029738 -1.310984 0.659899
v 0.029738 -1.310984 0.659899
v 0.05745 -1.299506 0.659899
v 0.0525 -1.290933 0.664
v 0.027176 -1.301422 0.664
v 0.027176 -1.301422 0.664
v 0.0525 -1.290933 0.664
v 0.04755 -1.282359 0.659899
v 0.024614 -1.29186 0.659899
v 0.024614 -1.29186 0.659899
v 0.04755 -1.282359 0.659899
v 0.0455 -1.278808 0.65
v 0.023553 -1.287899 0.65
v 0.023553 -1.287899 0.65
v 0.0455 -1.278808 0.65
v 0.04755 -1.282359 0.640101
v 0.024614 -1.29186 0.640101
v 0.024614 -1.29186 0.640101
v 0.04755 -1.282359 0.640101
v 0.0525 -1.290933 0.636
v 0.027176 -1.301422 0.636
v 0.027176 -1.301422 0.636
v 0.0525 -1.290933 0.636
v 0.05745 -1.299506 0.640101
v 0.029738 -1.310984 0.640101
v 0.029738 -1.310984 0.640101
v 0.05745 -1.299506 0.640101
v 0.0595 -1.303057 0.65
v 0.030799 -1.314945 0.65
v 0.0595 -1.303057 0.65
v 0.084146 -1.284146 0.65
v 0.081246 -1.281246 0.659899
v 0.05745 -1.299506 0.659899
v 0.05745 -1.299506 0.659899
v 0.081246 -1.281246 0.659899
v 0.074246 -1.274246 0.664
v 0.0525 -1.290933 0.664
v 0.0525 -1.290933 0.664
v 0.074246 -1.274246 0.664
v 0.067246 -1.267246 0.659899
v 0.04755 -1.282359 0.659899
v 0.04755 -1.282359 0.659899
v 0.067246 -1.267246 0.659899
v 0.064347 -1.264347 0.65
v 0.0455 -1.278808 0.65
v 0.0455 -1.278808 0.65
v 0.064347 -1.264347 0.65
v 0.067246 -1.267246 0.640101
v 0.04755 -1.282359 0.640101
v 0.04755 -1.282359 0.640101
v 0.067246 -1.267246 0.640101
v 0.074246 -1.274246 0.636
v 0.0525 -1.290933 0.636
v 0.0525 -1.290933 0.636
v 0.074246 -1.274246 0.636
v 0.081246 -1.281246 0.640101
v 0.05745 -1.299506 0.640101
v 0.05745 -1.299506 0.640101
v 0.081246 -1.281246 0.640101
v 0.084146 -1.284146 0.65
v 0.0595 -1.303057 0.65
v 0.084146 -1.284146 0.65
v 0.103057 -1.2595 0.65
v 0.099506 -1.25745 0.659899
v 0.081246 -1.281246 0.659899
v 0.081246 -1.281246 0.659899
v 0.099506 -1.25745 0.659899
v 0.090933 -1.2525 0.664
v 0.074246 -1.274246 0.664
v 0.074246 -1.274246 0.664
v 0.090933 -1.2525 0.664
v 0.082359 -1.24755 0.659899
v 0.067246 -1.267246 0.659899
v 0.067246 -1.267246 0.659899
v 0.082359 -1.24755 0.659899
v 0.078808 -1.2455 0.65
v 0.064347 -1.264347 0.65
v 0.064347 -1.264347 0.65
v 0.078808 -1.2455 0.65
v 0.082359 -1.24755 0.640101
v 0.067246 -1.267246 0.640101
v 0.067246 -1.267246 0.640101
v 0.082359 -1.24755 0.640101
v 0.090933 -1.2525 0.636
v 0.074246 -1.274246 0.636
v 0.074246 -1.274246 0.636
v 0.090933 -1.2525 0.636
v 0.099506 -1.25745 0.640101
v 0.081246 -1.281246 0.640101
v 0.081246 -1.281246 0.640101
v 0.099506 -1.25745 0.640101
v 0.103057 -1.2595 0.65
v 0.084146 -1.284146 0.65
v 0.103057 -1.2595 0.65
v 0.114945 -1.230799 0.65
v 0.110984 -1.229738 0.659899
v 0.099506 -1.25745 0.659899
v 0.099506 -1.25745 0.659899
v 0.110984 -1.229738 0.659899
v 0.101422 -1.227176 0.664
v 0.090933 -1.2525 0.664
v 0.090933 -1.2525 0.664
v 0.101422 -1.227176 0.664
v 0.09186 -1.224614 0.659899
v 0.082359 -1.24755 0.659899
v 0.082359 -1.24755 0.659899
v 0.09186 -1.224614 0.659899
v 0.087899 -1.223553 0.65
v 0.078808 -1.2455 0.65
v 0.078808 -1.2455 0.65
v 0.087899 -1.223553 0.65
v 0.09186 -1.224614 0.640101
v 0.082359 -1.24755 0.640101
v 0.082359 -1.24755 0.640101
v 0.09186 -1.224614 0.640101
v 0.101422 -1.227176 0.636
v 0.090933 -1.2525 0.636
v 0.090933 -1.2525 0.636
v 0.101422 -1.227176 0.636
v 0.110984 -1.229738 0.640101
v 0.099506 -1.25745 0.640101
v 0.099506 -1.25745 0.640101
v 0.110984 -1.229738 0.640101
v 0.114945 -1.230799 0.65
v 0.103057 -1.2595 0.65
v 0.114945 -1.230799 0.65
v 0.119 -1.2 0.65
v 0.114899 -1.2 0.659899
v 0.110984 -1.229738 0.659899
v 0.110984 -1.229738 0.659899
v 0.114899 -1.2 0.659899
v 0.105 -1.2 0.664
v 0.101422 -1.227176 0.664
v 0.101422 -1.227176 0.664
v 0.105 -1.2 0.664
v 0.095101 -1.2 0.659899
v 0.09186 -1.224614 0.659899
v 0.09186 -1.224614 0.659899
v 0.095101 -1.2 0.659899
v 0.091 -1.2 0.65
v 0.087899 -1.223553 0.65
v 0.087899 -1.223553 0.65
v 0.091 -1.2 0.65
v 0.095101 -1.2 0.640101
v 0.09186 -1.224614 0.640101
v 0.09186 -1.224614 0.640101
v 0.095101 -1.2 0.640101
v 0.105 -1.2 0.636
v 0.101422 -1.227176 0.636
v 0.101422 -1.227176 0.636
v 0.105 -1.2 0.636
v 0.114899 -1.2 0.640101
v 0.110984 -1.229738 0.640101
v 0.110984 -1.229738 0.640101
v 0.114899 -1.2 0.640101
v 0.119 -1.2 0.65
v 0.114945 -1.230799 0.65
v 0.119 -1.2 0.65
v 0.114945 -1.169201 0.65
v 0.110984 -1.170262 0.659899
v 0.114899 -1.2 0.659899
v 0.114899 -1.2 0.659899
v 0.110984 -1.170262 0.659899
v 0.101422 -1.172824 0.664
v 0.105 -1.2 0.664
v 0.105 -1.2 0.664
v 0.101422 -1.172824 0.664
v 0.09186 -1.175386 0.659899
v 0.095101 -1.2 0.659899
v 0.095101 -1.2 0.659899
v 0.09186 -1.175386 0.659899
v 0.087899 -1.176447 0.65
v 0.091 -1.2 0.65
v 0.091 -1.2 0.65
v 0.087899 -1.176447 0.65
v 0.09186 -1.175386 0.640101
v 0.095101 -1.2 0.640101
v 0.095101 -1.2 0.640101
v 0.09186 -1.175386 0.640101
v 0.101422 -1.172824 0.636
v 0.105 -1.2 0.636
v 0.105 -1.2 0.636
v 0.101422 -1.172824 0.636
v 0.110984 -1.170262 0.640101
v 0.114899 -1.2 0.640101
v 0.114899 -1.2 0.640101
v 0.110984 -1.170262 0.640101
v 0.114945 -1.169201 0.65
v 0.119 -1.2 0.65
v 0.114945 -1.169201 0.65
v 0.103057 -1.1405 0.65
v 0.099506 -1.14255 0.659899
v 0.110984 -1.170262 0.659899
v 0.110984 -1.170262 0.659899
v 0.099506 -1.14255 0.659899
v 0.090933 -1.1475 0.664
v 0.101422 -1.172824 0.664
v 0.101422 -1.172824 0.664
v 0.090933 -1.1475 0.664
v 0.082359 -1.15245 0.659899
v 0.09186 -1.175386 0.659899
v 0.09186 -1.175386 0.659899
v 0.082359 -1.15245 0.659899
v 0.078808 -1.1545 0.65
v 0.087899 -1.176447 0.65
v 0.087899 -1.176447 0.65
v 0.078808 -1.1545 0.65
v 0.082359 -1.15245 0.640101
v 0.09186 -1.175386 0.640101
v 0.09186 -1.175386 0.640101
v 0.082359 -1.15245 0.640101
v 0.090933 -1.1475 0.636
v 0.101422 -1.172824 0.636
v 0.101422 -1.172824 0.636
v 0.090933 -1.1475 0.636
v 0.099506 -1.14255 0.640101
v 0.110984 -1.170262 0.640101
v 0.110984 -1.170262 0.640101
v 0.099506 -1.14255 0.640101
v 0.103057 -1.1405 0.65
v 0.114945 -1.169201 0.65
v 0.103057 -1.1405 0.65
v 0.084146 -1.115854 0.65
v 0.081246 -1.118754 0.659899
v 0.099506 -1.14255 0.659899
v 0.099506 -1.14255 0.659899
v 0.081246 -1.118754 0.659899
v 0.074246 -1.125754 0.664
v 0.090933 -1.1475 0.664
v 0.090933 -1.1475 0.664
v 0.074246 -1.125754 0.664
v 0.067246 -1.132754 0.659899
v 0.082359 -1.15245 0.659899
v 0.082359 -1.15245 0.659899
v 0.067246 -1.132754 0.659899
v 0.064347 -1.135653 0.65
v 0.078808 -1.1545 0.65
v 0.078808 -1.1545 0.65
v 0.064347 -1.135653 0.65
v 0.067246 -1.132754 0.640101
v 0.082359 -1.15245 0.640101
v 0.082359 -1.15245 0.640101
v 0.067246 -1.132754 0.640101
v 0.074246 -1.125754 0.636
v 0.090933 -1.1475 0.636
v 0.090933 -1.1475 0.636
v 0.074246 -1.125754 0.636
v 0.081246 -1.118754 0.640101
v 0.099506 -1.14255 0.640101
v 0.099506 -1.14255 0.640101
v 0.081246 -1.118754 0.640101
v 0.084146 -1.115854 0.65
v 0.103057 -1.1405 0.65
v 0.084146 -1.115854 0.65
v 0.0595 -1.096943 0.65
v 0.05745 -1.100494 0.659899
v 0.081246 -1.118754 0.659899
v 0.081246 -1.118754 0.659899
v 0.05745 -1.100494 0.659899
v 0.0525 -1.109067 0.664
v 0.074246 -1.125754 0.664
v 0.074246 -1.125754 0.664
v 0.0525 -1.109067 0.664
v 0.04755 -1.117641 0.659899
v 0.067246 -1.132754 0.659899
v 0.067246 -1.132754 0.659899
v 0.04755 -1.117641 0.659899
v 0.0455 -1.121192 0.65
v 0.064347 -1.135653 0.65
v 0.064347 -1.135653 0.65
v 0.0455 -1.121192 0.65
v 0.04755 -1.117641 0.640101
v 0.067246 -1.132754 0.640101
v 0.067246 -1.132754 0.640101
v 0.04755 -1.117641 0.640101
v 0.0525 -1.109067 0.636
v 0.074246 -1.125754 0.636
v 0.074246 -1.125754 0.636
v 0.0525 -1.109067 0.636
v 0.05745 -1.100494 0.640101
v 0.081246 -1.118754 0.640101
v 0.081246 -1.118754 0.640101
v 0.05745 -1.100494 0.640101
v 0.0595 -1.096943 0.65
v 0.084146 -1.115854 0.65
v 0.0595 -1.096943 0.65
v 0.030799 -1.085055 0.65
v 0.029738 -1.089016 0.659899
v 0.05745 -1.100494 0.659899
v 0.05745 -1.100494 0.659899
v 0.029738 -1.089016 0.659899
v 0.027176 -1.098578 0.664
v 0.0525 -1.109067 0.664
v 0.0525 -1.109067 0.664
v 0.027176 -1.098578 0.664
v 0.024614 -1.10814 0.659899
v 0.04755 -1.117641 0.659899
v 0.04755 -1.117641 0.659899
v 0.024614 -1.10814 0.659899
v 0.023553 -1.112101 0.65
v 0.0455 -1.121192 0.65
v 0.0455 -1.121192 0.65
v 0.023553 -1.112101 0.65
v 0.024614 -1.10814 0.640101
v 0.04755 -1.117641 0.640101
v 0.04755 -1.117641 0.640101
v 0.024614 -1.10814 0.640101
v 0.027176 -1.098578 0.636
v 0.0525 -1.109067 0.636
v 0.0525 -1.109067 0.636
v 0.027176 -1.098578 0.636
v 0.029738 -1.089016 0.640101
v 0.05745 -1.100494 0.640101
v 0.05745 -1.100494 0.640101
v 0.029738 -1.089016 0.640101
v 0.030799 -1.085055 0.65
v 0.0595 -1.096943 0.65
v 0.030799 -1.085055 0.65
v 0 -1.081 0.65
v 0 -1.085101 0.659899
v 0.029738 -1.089016 0.659899
v 0.029738 -1.089016 0.659899
v 0 -1.085101 0.659899
v 0 -1.095 0.664
v 0.027176 -1.098578 0.664
v 0.027176 -1.098578 0.664
v 0 -1.095 0.664
v 0 -1.104899 0.659899
v 0.024614 -1.10814 0.659899
v 0.024614 -1.10814 0.659899
v 0 -1.104899 0.659899
v 0 -1.109 0.65
v 0.023553 -1.112101 0.65
v 0.023553 -1.112101 0.65
v 0 -1.109 0.65
v 0 -1.104899 0.640101
v 0.024614 -1.10814 0.640101
v 0.024614 -1.10814 0.640101
v 0 -1.104899 0.640101
v 0 -1.095 0.636
v 0.027176 -1.098578 0.636
v 0.027176 -1.098578 0.636
v 0 -1.095 0.636
v 0 -1.085101 0.640101
v 0.029738 -1.089016 0.640101
v 0.029738 -1.089016 0.640101
v 0 -1.085101 0.640101
v 0 -1.081 0.65
v 0.030799 -1.085055 0.65
v 0 -1.081 0.65
v -0.030799 -1.085055 0.65
v -0.029738 -1.089016 0.659899
v 0 -1.085101 0.659899
v 0 -1.085101 0.659899
v -0.029738 -1.089016 0.659899
v -0.027176 -1.098578 0.664
v 0 -1.095 0.664
v 0 -1.095 0.664
v -0.027176 -1.098578 0.664
v -0.024614 -1.10814 0.659899
v 0 -1.104899 0.659899
v 0 -1.104899 0.659899
v -0.024614 -1.10814 0.659899
v -0.023553 -1.112101 0.65
v 0 -1.109 0.65
v 0 -1.109 0.65
v -0.023553 -1.112101 0.65
v -0.024614 -1.10814 0.640101
v 0 -1.104899 0.640101
v 0 -1.104899 0.640101
v -0.024614 -1.10814 0.640101
v -0.027176 -1.098578 0.636
v 0 -1.095 0.636
v 0 -1.095 0.636
v -0.027176 -1.098578 0.636
v -0.029738 -1.089016 0.640101
v 0 -1.085101 0.640101
v 0 -1.085101 0.640101
v -0.029738 -1.089016 0.640101
v -0.030799 -1.085055 0.65
v 0 -1.081 0.65
v -0.030799 -1.085055 0.65
v -0.0595 -1.096943 0.65
v -0.05745 -1.100494 0.659899
v -0.029738 -1.089016 0.659899
v -0.029738 -1.089016 0.659899
v -0.05745 -1.100494 0.659899
v -0.0525 -1.109067 0.664
v -0.027176 -1.098578 0.664
v -0.027176 -1.098578 0.664
v -0.0525 -1.109067 0.664
v -0.04755 -1.117641 0.659899
v -0.024614 -1.10814 0.659899
v -0.024614 -1.10814 0.659899
v -0.04755 -1.117641 0.659899
v -0.0455 -1.121192 0.65
v -0.023553 -1.112101 0.65
v -0.023553 -1.112101 0.65
v -0.0455 -1.121192 0.65
v -0.04755 -1.117641 0.640101
v -0.024614 -1.10814 0.640101
v -0.024614 -1.10814 0.640101
v -0.04755 -1.117641 0.640101
v -0.0525 -1.109067 0.636
v -0.027176 -1.098578 0.636
v -0.027176 -1.098578 0.636
v -0.0525 -1.109067 0.636
v -0.05745 -1.100494 0.640101
v -0.029738 -1.089016 0.640101
v -0.029738 -1.089016 0.640101
v -0.05745 -1.100494 0.640101
v -0.0595 -1.096943 0.65
v -0.030799 -1.085055 0.65
v -0.0595 -1.096943 0.65
v -0.084146 -1.115854 0.65
v -0.081246 -1.118754 0.659899
v -0.05745 -1.100494 0.659899
v -0.05745 -1.100494 0.659899
v -0.081246 -1.118754 0.659899
v -0.074246 -1.125754 0.664
v -0.0525 -1.109067 0.664
v -0.0525 -1.109067 0.664
v -0.074246 -1.125754 0.664
v -0.067246 -1.132754 0.659899
v -0.04755 -1.117641 0.659899
v -0.04755 -1.117641 0.659899
v -0.067246 -1.132754 0.659899
v -0.064347 -1.135653 0.65
v -0.0455 -1.121192 0.65
v -0.0455 -1.121192 0.65
v -0.064347 -1.135653 0.65
v -0.067246 -1.132754 0.640101
v -0.04755 -1.117641 0.640101
v -0.04755 -1.117641 0.640101
v -0.067246 -1.132754 0.640101
v -0.074246 -1.125754 0.636
v -0.0525 -1.109067 0.636
v -0.0525 -1.109067 0.636
v -0.074246 -1.125754 0.636
v -0.081246 -1.118754 0.640101
v -0.05745 -1.100494 0.640101
v -0.05745 -1.100494 0.640101
v -0.081246 -1.118754 0.640101
v -0.084146 -1.115854 0.65
v -0.0595 -1.096943 0.65
v -0.084146 -1.115854 0.65
v -0.103057 -1.1405 0.65
v -0.099506 -1.14255 0.659899
v -0.081246 -1.118754 0.659899
v -0.081246 -1.118754 0.659899
v -0.099506 -1.14255 0.659899
v -0.090933 -1.1475 0.664
v -0.074246 -1.125754 0.664
v -0.074246 -1.125754 0.664
v -0.090933 -1.1475 0.664
v -0.082359 -1.15245 0.659899
v -0.067246 -1.132754 0.659899
v -0.067246 -1.132754 0.659899
v -0.082359 -1.15245 0.659899
v -0.078808 -1.1545 0.65
v -0.064347 -1.135653 0.65
v -0.064347 -1.135653 0.65
v -0.078808 -1.1545 0.65
v -0.082359 -1.15245 0.640101
v -0.067246 -1.132754 0.640101
v -0.067246 -1.132754 0.640101
v -0.082359 -1.15245 0.640101
v -0.090933 -1.1475 0.636
v -0.074246 -1.125754 0.636
v -0.074246 -1.125754 0.636
v -0.090933 -1.1475 0.636
v -0.099506 -1.14255 0.640101
v -0.081246 -1.118754 0.640101
v -0.081246 -1.118754 0.640101
v -0.099506 -1.14255 0.640101
v -0.103057 -1.1405 0.65
v -0.084146 -1.115854 0.65
v -0.103057 -1.1405 0.65
v -0.114945 -1.169201 0.65
v -0.110984 -1.170262 0.659899
v -0.099506 -1.14255 0.659899
v -0.099506 -1.14255 0.659899
v -0.110984 -1.170262 0.659899
v -0.101422 -1.172824 0.664
v -0.090933 -1.1475 0.664
v -0.090933 -1.1475 0.664
v -0.101422 -1.172824 0.664
v -0.09186 -1.175386 0.659899
v -0.082359 -1.15245 0.659899
v -0.082359 -1.15245 0.659899
v -0.09186 -1.175386 0.659899
v -0.087899 -1.176447 0.65
v -0.078808 -1.1545 0.65
v -0.078808 -1.1545 0.65
v -0.087899 -1.176447 0.65
v -0.09186 -1.175386 0.640101
v -0.082359 -1.15245 0.640101
v -0.082359 -1.15245 0.640101
v -0.09186 -1.175386 0.640101
v -0.101422 -1.172824 0.636
v -0.090933 -1.1475 0.636
v -0.090933 -1.1475 0.636
v -0.101422 -1.172824 0.636
v -0.110984 -1.170262 0.640101
v -0.099506 -1.14255 0.640101
v -0.099506 -1.14255 0.640101
v -0.110984 -1.170262 0.640101
v -0.114945 -1.169201 0.65
v -0.103057 -1.1405 0.65
v -0.114945 -1.169201 0.65
v -0.119 -1.2 0.65
v -0.114899 -1.2 0.659899
v -0.110984 -1.170262 0.659899
v -0.110984 -1.170262 0.659899
v -0.114899 -1.2 0.659899
v -0.105 -1.2 0.664
v -0.101422 -1.172824 0.664
v -0.101422 -1.172824 0.664
v -0.105 -1.2 0.664
v -0.095101 -1.2 0.659899
v -0.09186 -1.175386 0.659899
v -0.09186 -1.175386 0.659899
v -0.095101 -1.2 0.659899
v -0.091 -1.2 0.65
v -0.087899 -1.176447 0.65
v -0.087899 -1.176447 0.65
v -0.091 -1.2 0.65
v -0.095101 -1.2 0.640101
v -0.09186 -1.175386 0.640101
v -0.09186 -1.175386 0.640101
v -0.095101 -1.2 0.640101
v -0.105 -1.2 0.636
v -0.101422 -1.172824 0.636
v -0.101422 -1.172824 0.636
v -0.105 -1.2 0.636
v -0.114899 -1.2 0.640101
v -0.110984 -1.170262 0.640101
v -0.110984 -1.170262 0.640101
v -0.114899 -1.2 0.640101
v -0.119 -1.2 0.65
v -0.114945 -1.169201 0.65
v 0.002 -1.21 0.65
v 0.002 -1.20809 0.644122
v 0.102 -1.20809 0.644122
v 0.102 -1.21 0.65
v 0.002 -1.20809 0.644122
v 0.002 -1.20309 0.640489
v 0.102 -1.20309 0.640489
v 0.102 -1.20809 0.644122
v 0.002 -1.20309 0.640489
v 0.002 -1.19691 0.640489
v 0.102 -1.19691 0.640489
v 0.102 -1.20309 0.640489
v 0.002 -1.19691 0.640489
v 0.002 -1.19191 0.644122
v 0.102 -1.19191 0.644122
v 0.102 -1.19691 0.640489
v 0.002 -1.19191 0.644122
v 0.002 -1.19 0.65
v 0.102 -1.19 0.65
v 0.102 -1.19191 0.644122
v 0.002 -1.19 0.65
v 0.002 -1.19191 0.655878
v 0.102 -1.19191 0.655878
v 0.102 -1.19 0.65
v 0.002 -1.19191 0.655878
v 0.002 -1.19691 0.659511
v 0.102 -1.19691 0.659511
v 0.102 -1.19191 0.655878
v 0.002 -1.19691 0.659511
v 0.002 -1.20309 0.659511
v 0.102 -1.20309 0.659511
v 0.102 -1.19691 0.659511
v 0.002 -1.20309 0.659511
v 0.002 -1.20809 0.655878
v 0.102 -1.20809 0.655878
v 0.102 -1.20309 0.659511
v 0.002 -1.20809 0.655878
v 0.002 -1.21 0.65
v 0.102 -1.21 0.65
v 0.102 -1.20809 0.655878
v 0.002 -1.21 0.65
v 0.002 -1.20809 0.644122
v 0.002 -1.20309 0.640489
v 0.002 -1.19691 0.640489
v 0.002 -1.19191 0.644122
v 0.002 -1.19 0.65
v 0.002 -1.19191 0.655878
v 0.002 -1.19691 0.659511
v 0.002 -1.20309 0.659511
v 0.002 -1.20809 0.655878
v 0.102 -1.21 0.65
v 0.102 -1.20809 0.644122
v 0.102 -1.20309 0.640489
v 0.102 -1.19691 0.640489
v 0.102 -1.19191 0.644122
v 0.102 -1.19 0.65
v 0.102 -1.19191 0.655878
v 0.102 -1.19691 0.659511
v 0.102 -1.20309 0.659511
v 0.102 -1.20809 0.655878
v 0.01 -1.198 0.65
v 0.00809 -1.198 0.644122
v 0.00809 -1.098 0.644122
v 0.01 -1.098 0.65
v 0.00809 -1.198 0.644122
v 0.00309 -1.198 0.640489
v 0.00309 -1.098 0.640489
v 0.00809 -1.098 0.644122
v 0.00309 -1.198 0.640489
v -0.00309 -1.198 0.640489
v -0.00309 -1.098 0.640489
v 0.00309 -1.098 0.640489
v -0.00309 -1.198 0.640489
v -0.00809 -1.198 0.644122
v -0.00809 -1.098 0.644122
v -0.00309 -1.098 0.640489
v -0.00809 -1.198 0.644122
v -0.01 -1.198 0.65
v -0.01 -1.098 0.65
v -0.00809 -1.098 0.644122
v -0.01 -1.198 0.65
v -0.00809 -1.198 0.655878
v -0.00809 -1.098 0.655878
v -0.01 -1.098 0.65
v -0.00809 -1.198 0.655878
v -0.00309 -1.198 0.659511
v -0.00309 -1.098 0.659511
v -0.00809 -1.098 0.655878
v -0.00309 -1.198 0.659511
v 0.00309 -1.198 0.659511
v 0.00309 -1.098 0.659511
v -0.00309 -1.098 0.659511
v 0.00309 -1.198 0.659511
v 0.00809 -1.198 0.655878
v 0.00809 -1.098 0.655878
v 0.00309 -1.098 0.659511
v 0.00809 -1.198 0.655878
v 0.01 -1.198 0.65
v 0.01 -1.098 0.65
v 0.00809 -1.098 0.655878
v 0.00809 -1.198 0.655878
v 0.00309 -1.198 0.659511
v -0.00309 -1.198 0.659511
v -0.00809 -1.198 0.655878
v -0.01 -1.198 0.65
v -0.00809 -1.198 0.644122
v -0.00309 -1.198 0.640489
v 0.00309 -1.198 0.640489
v 0.00809 -1.198 0.644122
v 0.01 -1.198 0.65
v 0.01 -1.098 0.65
v 0.00809 -1.098 0.644122
v 0.00309 -1.098 0.640489
v -0.00309 -1.098 0.640489
v -0.00809 -1.098 0.644122
v -0.01 -1.098 0.65
v -0.00809 -1.098 0.655878
v -0.00309 -1.098 0.659511
v 0.00309 -1.098 0.659511
v 0.00809 -1.098 0.655878
v -0.002 -1.19 0.65
v -0.002 -1.19191 0.644122
v -0.102 -1.19191 0.644122
v -0.102 -1.19 0.65
v -0.002 -1.19191 0.644122
v -0.002 -1.19691 0.640489
v -0.102 -1.19691 0.640489
v -0.102 -1.19191 0.644122
v -0.002 -1.19691 0.640489
v -0.002 -1.20309 0.640489
v -0.102 -1.20309 0.640489
v -0.102 -1.19691 0.640489
v -0.002 -1.20309 0.640489
v -0.002 -1.20809 0.644122
v -0.102 -1.20809 0.644122
v -0.102 -1.20309 0.640489
v -0.002 -1.20809 0.644122
v -0.002 -1.21 0.65
v -0.102 -1.21 0.65
v -0.102 -1.20809 0.644122
v -0.002 -1.21 0.65
v -0.002 -1.20809 0.655878
v -0.102 -1.20809 0.655878
v -0.102 -1.21 0.65
v -0.002 -1.20809 0.655878
v -0.002 -1.20309 0.659511
v -0.102 -1.20309 0.659511
v -0.102 -1.20809 0.655878
v -0.002 -1.20309 0.659511
v -0.002 -1.19691 0.659511
v -0.102 -1.19691 0.659511
v -0.102 -1.20309 0.659511
v -0.002 -1.19691 0.659511
v -0.002 -1.19191 0.655878
v -0.102 -1.19191 0.655878
v -0.102 -1.19691 0.659511
v -0.002 -1.19191 0.655878
v -0.002 -1.19 0.65
v -0.102 -1.19 0.65
v -0.102 -1.19191 0.655878
v -0.002 -1.19 0.65
v -0.002 -1.19191 0.644122
v -0.002 -1.19691 0.640489
v -0.002 -1.20309 0.640489
v -0.002 -1.20809 0.644122
v -0.002 -1.21 0.65
v -0.002 -1.20809 0.655878
v -0.002 -1.20309 0.659511
v -0.002 -1.19691 0.659511
v -0.002 -1.19191 0.655878
v -0.102 -1.19 0.65
v -0.102 -1.19191 0.644122
v -0.102 -1.19691 0.640489
v -0.102 -1.20309 0.640489
v -0.102 -1.20809 0.644122
v -0.102 -1.21 0.65
v -0.102 -1.20809 0.655878
v -0.102 -1.20309 0.659511
v -0.102 -1.19691 0.659511
v -0.102 -1.19191 0.655878
v -0.01 -1.202 0.65
v -0.00809 -1.202 0.644122
v -0.00809 -1.302 0.644122
v -0.01 -1.302 0.65
v -0.00809 -1.202 0.644122
v -0.00309 -1.202 0.640489
v -0.00309 -1.302 0.640489
v -0.00809 -1.302 0.644122
v -0.00309 -1.202 0.640489
v 0.00309 -1.202 0.640489
v 0.00309 -1.302 0.640489
v -0.00309 -1.302 0.640489
v 0.00309 -1.202 0.640489
v 0.00809 -1.202 0.644122
v 0.00809 -1.302 0.644122
v 0.00309 -1.302 0.640489
v 0.00809 -1.202 0.644122
v 0.01 -1.202 0.65
v 0.01 -1.302 0.65
v 0.00809 -1.302 0.644122
v 0.01 -1.202 0.65
v 0.00809 -1.202 0.655878
v 0.00809 -1.302 0.655878
v 0.01 -1.302 0.65
v 0.00809 -1.202 0.655878
v 0.00309 -1.202 0.659511
v 0.00309 -1.302 0.659511
v 0.00809 -1.302 0.655878
v 0.00309 -1.202 0.659511
v -0.00309 -1.202 0.659511
v -0.00309 -1.302 0.659511
v 0.00309 -1.302 0.659511
v -0.00309 -1.202 0.659511
v -0.00809 -1.202 0.655878
v -0.00809 -1.302 0.655878
v -0.00309 -1.302 0.659511
v -0.00809 -1.202 0.655878
v -0.01 -1.202 0.65
v -0.01 -1.302 0.65
v -0.00809 -1.302 0.655878
v -0.01 -1.202 0.65
v -0.00809 -1.202 0.644122
v -0.00309 -1.202 0.640489
v 0.00309 -1.202 0.640489
v 0.00809 -1.202 0.644122
v 0.01 -1.202 0.65
v 0.00809 -1.202 0.655878
v 0.00309 -1.202 0.659511
v -0.00309 -1.202 0.659511
v -0.00809 -1.202 0.655878
v -0.00809 -1.302 0.655878
v -0.00309 -1.302 0.659511
v 0.00309 -1.302 0.659511
v 0.00809 -1.302 0.655878
v 0.01 -1.302 0.65
v 0.00809 -1.302 0.644122
v 0.00309 -1.302 0.640489
v -0.00309 -1.302 0.640489
v -0.00809 -1.302 0.644122
v -0.01 -1.302 0.65
v -0.12 -1.666 0.106
v -0.12 -1.414 0.106
v -0.12 -1.414 0.054
v -0.12 -1.666 0.054
v 0.12 -1.666 0.054
v 0.12 -1.414 0.054
v 0.12 -1.414 0.106
v 0.12 -1.666 0.106
v -0.106 -1.68 0.054
v 0.106 -1.68 0.054
v 0.106 -1.68 0.106
v -0.106 -1.68 0.106
v -0.106 -1.4 0.106
v 0.106 -1.4 0.106
v 0.106 -1.4 0.054
v -0.106 -1.4 0.054
v -0.106 -1.414 0.04
v 0.106 -1.414 0.04
v 0.106 -1.666 0.04
v -0.106 -1.666 0.04
v -0.106 -1.666 0.12
v 0.106 -1.666 0.12
v 0.106 -1.414 0.12
v -0.106 -1.414 0.12
v -0.12 -1.666 0.054
v -0.106 -1.68 0.054
v -0.106 -1.68 0.106
v -0.12 -1.666 0.106
v -0.12 -1.414 0.106
v -0.106 -1.4 0.106
v -0.106 -1.4 0.054
v -0.12 -1.414 0.054
v 0.12 -1.666 0.106
v 0.106 -1.68 0.106
v 0.106 -1.68 0.054
v 0.12 -1.666 0.054
v 0.12 -1.414 0.054
v 0.106 -1.4 0.054
v 0.106 -1.4 0.106
v 0.12 -1.414 0.106
v -0.12 -1.414 0.054
v -0.106 -1.414 0.04
v -0.106 -1.666 0.04
v -0.12 -1.666 0.054
v -0.12 -1.666 0.106
v -0.106 -1.666 0.12
v -0.106 -1.414 0.12
v -0.12 -1.414 0.106
v 0.12 -1.666 0.054
v 0.106 -1.666 0.04
v 0.106 -1.414 0.04
v 0.12 -1.414 0.054
v 0.12 -1.414 0.106
v 0.106 -1.414 0.12
v 0.106 -1.666 0.12
v 0.12 -1.666 0.106
v -0.106 -1.68 0.054
v -0.106 -1.666 0.04
v 0.106 -1.666 0.04
v 0.106 -1.68 0.054
v 0.106 -1.68 0.106
v 0.106 -1.666 0.12
v -0.106 -1.666 0.12
v -0.106 -1.68 0.106
v 0.106 -1.4 0.054
v 0.106 -1.414 0.04
v -0.106 -1.414 0.04
v -0.106 -1.4 0.054
v -0.106 -1.4 0.106
v -0.106 -1.414 0.12
v 0.106 -1.414 0.12
v 0.106 -1.4 0.106
v -0.106 -1.666 0.04
v -0.106 -1.68 0.054
v -0.12 -1.666 0.054
v -0.12 -1.666 0.106
v -0.106 -1.68 0.106
v -0.106 -1.666 0.12
v -0.12 -1.414 0.054
v -0.106 -1.4 0.054
v -0.106 -1.414 0.04
v -0.106 -1.414 0.12
v -0.106 -1.4 0.106
v -0.12 -1.414 0.106
v 0.12 -1.666 0.054
v 0.106 -1.68 0.054
v 0.106 -1.666 0.04
v 0.106 -1.666 0.12
v 0.106 -1.68 0.106
v 0.12 -1.666 0.106
v 0.106 -1.414 0.04
v 0.106 -1.4 0.054
v 0.12 -1.414 0.054
v 0.12 -1.414 0.106
v 0.106 -1.4 0.106
v 0.106 -1.414 0.12
v -0.04 -1.578 0.348
v -0.04 -1.502 0.348
v -0.04 -1.502 0.092
v -0.04 -1.578 0.092
v 0.04 -1.578 0.092
v 0.04 -1.502 0.092
v 0.04 -1.502 0.348
v 0.04 -1.578 0.348
v -0.028 -1.59 0.092
v 0.028 -1.59 0.092
v 0.028 -1.59 0.348
v -0.028 -1.59 0.348
v -0.028 -1.49 0.348
v 0.028 -1.49 0.348
v 0.028 -1.49 0.092
v -0.028 -1.49 0.092
v -0.028 -1.502 0.08
v 0.028 -1.502 0.08
v 0.028 -1.578 0.08
v -0.028 -1.578 0.08
v -0.028 -1.578 0.36
v 0.028 -1.578 0.36
v 0.028 -1.502 0.36
v -0.028 -1.502 0.36
v -0.04 -1.578 0.092
v -0.028 -1.59 0.092
v -0.028 -1.59 0.348
v -0.04 -1.578 0.348
v -0.04 -1.502 0.348
v -0.028 -1.49 0.348
v -0.028 -1.49 0.092
v -0.04 -1.502 0.092
v 0.04 -1.578 0.348
v 0.028 -1.59 0.348
v 0.028 -1.59 0.092
v 0.04 -1.578 0.092
v 0.04 -1.502 0.092
v 0.028 -1.49 0.092
v 0.028 -1.49 0.348
v 0.04 -1.502 0.348
v -0.04 -1.502 0.092
v -0.028 -1.502 0.08
v -0.028 -1.578 0.08
v -0.04 -1.578 0.092
v -0.04 -1.578 0.348
v -0.028 -1.578 0.36
v -0.028 -1.502 0.36
v -0.04 -1.502 0.348
v 0.04 -1.578 0.092
v 0.028 -1.578 0.08
v 0.028 -1.502 0.08
v 0.04 -1.502 0.092
v 0.04 -1.502 0.348
v 0.028 -1.502 0.36
v 0.028 -1.578 0.36
v 0.04 -1.578 0.348
v -0.028 -1.59 0.092
v -0.028 -1.578 0.08
v 0.028 -1.578 0.08
v 0.028 -1.59 0.092
v 0.028 -1.59 0.348
v 0.028 -1.578 0.36
v -0.028 -1.578 0.36
v -0.028 -1.59 0.348
v 0.028 -1.49 0.092
v 0.028 -1.502 0.08
v -0.028 -1.502 0.08
v -0.028 -1.49 0.092
v -0.028 -1.49 0.348
v -0.028 -1.502 0.36
v 0.028 -1.502 0.36
v 0.028 -1.49 0.348
v -0.028 -1.578 0.08
v -0.028 -1.59 0.092
v -0.04 -1.578 0.092
v -0.04 -1.578 0.348
v -0.028 -1.59 0.348
v -0.028 -1.578 0.36
v -0.04 -1.502 0.092
v -0.028 -1.49 0.092
v -0.028 -1.502 0.08
v -0.028 -1.502 0.36
v -0.028 -1.49 0.348
v -0.04 -1.502 0.348
v 0.04 -1.578 0.092
v 0.028 -1.59 0.092
v 0.028 -1.578 0.08
v 0.028 -1.578 0.36
v 0.028 -1.59 0.348
v 0.04 -1.578 0.348
v 0.028 -1.502 0.08
v 0.028 -1.49 0.092
v 0.04 -1.502 0.092
v 0.04 -1.502 0.348
v 0.028 -1.49 0.348
v 0.028 -1.502 0.36
usemtl PipeSteel
f 1 2 3 4
f 5 6 7 8
f 9 10 11 12
f 13 14 15 16
f 17 18 19 20
f 21 22 23 24
f 25 26 27 28
f 29 30 31 32
f 33 34 35 36
f 37 38 39 40
f 41 42 43 44
f 45 46 47 48
f 49 50 51 52
f 53 54 55 56
f 57 58 59 60
f 61 62 63 64
f 65 66 67 68
f 69 70 71 72
f 73 74 75 76
f 77 78 79 80
f 81 82 83 84
f 85 86 87 88
f 89 90 91 92
f 93 94 95 96
f 97 98 99 100
f 101 102 103 104
f 105 106 107 108
f 109 110 111 112
f 113 114 115 116 117 118 119 120 121 122 123 124 125 126 127 128 129 130 131 132 133 134 135 136 137 138 139 140
f 141 142 143 144 145 146 147 148 149 150 151 152 153 154 155 156 157 158 159 160 161 162 163 164 165 166 167 168
f 169 170 171 172
f 173 174 175 176
f 177 178 179 180
f 181 182 183 184
f 185 186 187 188
f 189 190 191 192
f 193 194 195 196
f 197 198 199 200
f 201 202 203 204
f 205 206 207 208
f 209 210 211 212
f 213 214 215 216
f 217 218 219 220
f 221 222 223 224
f 225 226 227 228
f 229 230 231 232
f 233 234 235 236
f 237 238 239 240
f 241 242 243 244
f 245 246 247 248
f 249 250 251 252
f 253 254 255 256
f 257 258 259 260
f 261 262 263 264
f 265 266 267 268 269 270 271 272 273 274 275 276 277 278 279 280 281 282 283 284 285 286 287 288
f 289 290 291 292 293 294 295 296 297 298 299 300 301 302 303 304 305 306 307 308 309 310 311 312
usemtl Stainless
f 313 314 315 316
f 317 318 319 320
f 321 322 323 324
f 325 326 327 328
f 329 330 331 332
f 333 334 335 336
f 337 338 339 340
f 341 342 343 344
f 345 346 347 348
f 349 350 351 352
f 353 354 355 356
f 357 358 359 360
f 361 362 363 364
f 365 366 367 368
f 369 370 371 372
f 373 374 375 376
f 377 378 379 380
f 381 382 383 384
f 385 386 387 388
f 389 390 391 392
f 393 394 395 396
f 397 398 399 400
f 401 402 403 404
f 405 406 407 408
f 409 410 411 412 413 414 415 416 417 418 419 420 421 422 423 424 425 426 427 428 429 430 431 432
f 433 434 435 436 437 438 439 440 441 442 443 444 445 446 447 448 449 450 451 452 453 454 455 456
f 457 458 459 460
f 461 462 463 464
f 465 466 467 468
f 469 470 471 472
f 473 474 475 476
f 477 478 479 480
f 481 482 483 484
f 485 486 487 488
f 489 490 491 492
f 493 494 495 496
f 497 498 499 500
f 501 502 503 504
f 505 506 507 508
f 509 510 511 512
f 513 514 515 516
f 517 518 519 520
f 521 522 523 524
f 525 526 527 528
f 529 530 531 532
f 533 534 535 536
f 537 538 539 540
f 541 542 543 544
f 545 546 547 548 549 550 551 552 553 554 555 556 557 558 559 560 561 562 563 564 565 566
f 567 568 569 570 571 572 573 574 575 576 577 578 579 580 581 582 583 584 585 586 587 588
f 589 590 591 592
f 593 594 595 596
f 597 598 599 600
f 601 602 603 604
f 605 606 607 608
f 609 610 611 612
f 613 614 615 616
f 617 618 619 620
f 621 622 623 624
f 625 626 627 628
f 629 630 631 632
f 633 634 635 636
f 637 638 639 640
f 641 642 643 644
f 645 646 647 648
f 649 650 651 652
f 653 654 655 656
f 657 658 659 660
f 661 662 663 664
f 665 666 667 668
f 669 670 671 672
f 673 674 675 676
f 677 678 679 680
f 681 682 683 684
f 685 686 687 688 689 690 691 692 693 694 695 696 697 698 699 700 701 702 703 704 705 706 707 708
f 709 710 711 712 713 714 715 716 717 718 719 720 721 722 723 724 725 726 727 728 729 730 731 732
f 733 734 735 736
f 737 738 739 740
f 741 742 743 744
f 745 746 747 748
f 749 750 751 752
f 753 754 755 756
f 757 758 759 760
f 761 762 763 764
f 765 766 767 768
f 769 770 771 772
f 773 774 775 776
f 777 778 779 780
f 781 782 783 784
f 785 786 787 788
f 789 790 791 792
f 793 794 795 796
f 797 798 799 800
f 801 802 803 804
f 805 806 807 808
f 809 810 811 812
f 813 814 815 816
f 817 818 819 820
f 821 822 823 824 825 826 827 828 829 830 831 832 833 834 835 836 837 838 839 840 841 842
f 843 844 845 846 847 848 849 850 851 852 853 854 855 856 857 858 859 860 861 862 863 864
usemtl PipeSteel
f 865 866 867 868
f 869 870 871 872
f 873 874 875 876
f 877 878 879 880
f 881 882 883 884
f 885 886 887 888
f 889 890 891 892
f 893 894 895 896
f 897 898 899 900
f 901 902 903 904
f 905 906 907 908
f 909 910 911 912
f 913 914 915 916
f 917 918 919 920
f 921 922 923 924
f 925 926 927 928
f 929 930 931 932
f 933 934 935 936
f 937 938 939 940
f 941 942 943 944
f 945 946 947 948
f 949 950 951 952
f 953 954 955 956
f 957 958 959 960
f 961 962 963 964 965 966 967 968 969 970 971 972 973 974 975 976 977 978 979 980 981 982 983 984
f 985 986 987 988 989 990 991 992 993 994 995 996 997 998 999 1000 1001 1002 1003 1004 1005 1006 1007 1008
f 1009 1010 1011 1012
f 1013 1014 1015 1016
f 1017 1018 1019 1020
f 1021 1022 1023 1024
f 1025 1026 1027 1028
f 1029 1030 1031 1032
f 1033 1034 1035 1036
f 1037 1038 1039 1040
f 1041 1042 1043 1044
f 1045 1046 1047 1048
f 1049 1050 1051 1052
f 1053 1054 1055 1056
f 1057 1058 1059 1060
f 1061 1062 1063 1064
f 1065 1066 1067 1068
f 1069 1070 1071 1072
f 1073 1074 1075 1076
f 1077 1078 1079 1080
f 1081 1082 1083 1084
f 1085 1086 1087 1088
f 1089 1090 1091 1092
f 1093 1094 1095 1096
f 1097 1098 1099 1100
f 1101 1102 1103 1104
f 1105 1106 1107 1108 1109 1110 1111 1112 1113 1114 1115 1116 1117 1118 1119 1120 1121 1122 1123 1124 1125 1126 1127 1128
f 1129 1130 1131 1132 1133 1134 1135 1136 1137 1138 1139 1140 1141 1142 1143 1144 1145 1146 1147 1148 1149 1150 1151 1152
usemtl Stainless
f 1153 1154 1155 1156
f 1157 1158 1159 1160
f 1161 1162 1163 1164
f 1165 1166 1167 1168
f 1169 1170 1171 1172
f 1173 1174 1175 1176
f 1177 1178 1179 1180
f 1181 1182 1183 1184
f 1185 1186 1187 1188
f 1189 1190 1191 1192
f 1193 1194 1195 1196
f 1197 1198 1199 1200
f 1201 1202 1203 1204
f 1205 1206 1207 1208
f 1209 1210 1211 1212
f 1213 1214 1215 1216
f 1217 1218 1219 1220
f 1221 1222 1223 1224
f 1225 1226 1227 1228
f 1229 1230 1231 1232
f 1233 1234 1235 1236
f 1237 1238 1239 1240
f 1241 1242 1243 1244
f 1245 1246 1247 1248
f 1249 1250 1251 1252 1253 1254 1255 1256 1257 1258 1259 1260 1261 1262 1263 1264 1265 1266 1267 1268 1269 1270 1271 1272
f 1273 1274 1275 1276 1277 1278 1279 1280 1281 1282 1283 1284 1285 1286 1287 1288 1289 1290 1291 1292 1293 1294 1295 1296
usemtl ValveOrange
f 1297 1298 1299 1300
f 1301 1302 1303 1304
f 1305 1306 1307 1308
f 1309 1310 1311 1312
f 1313 1314 1315 1316
f 1317 1318 1319 1320
f 1321 1322 1323 1324
f 1325 1326 1327 1328
f 1329 1330 1331 1332
f 1333 1334 1335 1336
f 1337 1338 1339 1340
f 1341 1342 1343 1344
f 1345 1346 1347 1348
f 1349 1350 1351 1352
f 1353 1354 1355 1356
f 1357 1358 1359 1360
f 1361 1362 1363 1364
f 1365 1366 1367 1368
f 1369 1370 1371 1372
f 1373 1374 1375 1376
f 1377 1378 1379 1380
f 1381 1382 1383 1384
f 1385 1386 1387 1388
f 1389 1390 1391 1392
f 1393 1394 1395 1396
f 1397 1398 1399 1400
f 1401 1402 1403 1404 1405 1406 1407 1408 1409 1410 1411 1412 1413 1414 1415 1416 1417 1418 1419 1420 1421 1422 1423 1424 1425 1426
f 1427 1428 1429 1430 1431 1432 1433 1434 1435 1436 1437 1438 1439 1440 1441 1442 1443 1444 1445 1446 1447 1448 1449 1450 1451 1452
usemtl Stainless
f 1453 1454 1455 1456
f 1457 1458 1459 1460
f 1461 1462 1463 1464
f 1465 1466 1467 1468
f 1469 1470 1471 1472
f 1473 1474 1475 1476
f 1477 1478 1479 1480
f 1481 1482 1483 1484
f 1485 1486 1487 1488
f 1489 1490 1491 1492
f 1493 1494 1495 1496
f 1497 1498 1499 1500
f 1501 1502 1503 1504
f 1505 1506 1507 1508
f 1509 1510 1511 1512
f 1513 1514 1515 1516
f 1517 1518 1519 1520 1521 1522 1523 1524 1525 1526 1527 1528 1529 1530 1531 1532
f 1533 1534 1535 1536 1537 1538 1539 1540 1541 1542 1543 1544 1545 1546 1547 1548
usemtl ValveOrange
f 1549 1550 1551 1552
f 1553 1554 1555 1556
f 1557 1558 1559 1560
f 1561 1562 1563 1564
f 1565 1566 1567 1568
f 1569 1570 1571 1572
f 1573 1574 1575 1576
f 1577 1578 1579 1580
f 1581 1582 1583 1584
f 1585 1586 1587 1588
f 1589 1590 1591 1592
f 1593 1594 1595 1596
f 1597 1598 1599 1600
f 1601 1602 1603 1604
f 1605 1606 1607 1608
f 1609 1610 1611 1612
f 1613 1614 1615 1616
f 1617 1618 1619 1620
f 1621 1622 1623 1624
f 1625 1626 1627 1628
f 1629 1630 1631 1632
f 1633 1634 1635 1636
f 1637 1638 1639 1640
f 1641 1642 1643 1644
f 1645 1646 1647 1648
f 1649 1650 1651 1652
f 1653 1654 1655 1656
f 1657 1658 1659 1660
f 1661 1662 1663 1664
f 1665 1666 1667 1668
f 1669 1670 1671 1672
f 1673 1674 1675 1676
f 1677 1678 1679 1680
f 1681 1682 1683 1684
f 1685 1686 1687 1688
f 1689 1690 1691 1692
f 1693 1694 1695 1696
f 1697 1698 1699 1700
f 1701 1702 1703 1704
f 1705 1706 1707 1708
f 1709 1710 1711 1712
f 1713 1714 1715 1716
f 1717 1718 1719 1720
f 1721 1722 1723 1724
f 1725 1726 1727 1728
f 1729 1730 1731 1732
f 1733 1734 1735 1736
f 1737 1738 1739 1740
f 1741 1742 1743 1744
f 1745 1746 1747 1748
f 1749 1750 1751 1752
f 1753 1754 1755 1756
f 1757 1758 1759 1760
f 1761 1762 1763 1764
f 1765 1766 1767 1768
f 1769 1770 1771 1772
f 1773 1774 1775 1776
f 1777 1778 1779 1780
f 1781 1782 1783 1784
f 1785 1786 1787 1788
f 1789 1790 1791 1792
f 1793 1794 1795 1796
f 1797 1798 1799 1800
f 1801 1802 1803 1804
f 1805 1806 1807 1808
f 1809 1810 1811 1812
f 1813 1814 1815 1816
f 1817 1818 1819 1820
f 1821 1822 1823 1824
f 1825 1826 1827 1828
f 1829 1830 1831 1832
f 1833 1834 1835 1836
f 1837 1838 1839 1840
f 1841 1842 1843 1844
f 1845 1846 1847 1848
f 1849 1850 1851 1852
f 1853 1854 1855 1856
f 1857 1858 1859 1860
f 1861 1862 1863 1864
f 1865 1866 1867 1868
f 1869 1870 1871 1872
f 1873 1874 1875 1876
f 1877 1878 1879 1880
f 1881 1882 1883 1884
f 1885 1886 1887 1888
f 1889 1890 1891 1892
f 1893 1894 1895 1896
f 1897 1898 1899 1900
f 1901 1902 1903 1904
f 1905 1906 1907 1908
f 1909 1910 1911 1912
f 1913 1914 1915 1916
f 1917 1918 1919 1920
f 1921 1922 1923 1924
f 1925 1926 1927 1928
f 1929 1930 1931 1932
f 1933 1934 1935 1936
f 1937 1938 1939 1940
f 1941 1942 1943 1944
f 1945 1946 1947 1948
f 1949 1950 1951 1952
f 1953 1954 1955 1956
f 1957 1958 1959 1960
f 1961 1962 1963 1964
f 1965 1966 1967 1968
f 1969 1970 1971 1972
f 1973 1974 1975 1976
f 1977 1978 1979 1980
f 1981 1982 1983 1984
f 1985 1986 1987 1988
f 1989 1990 1991 1992
f 1993 1994 1995 1996
f 1997 1998 1999 2000
f 2001 2002 2003 2004
f 2005 2006 2007 2008
f 2009 2010 2011 2012
f 2013 2014 2015 2016
f 2017 2018 2019 2020
f 2021 2022 2023 2024
f 2025 2026 2027 2028
f 2029 2030 2031 2032
f 2033 2034 2035 2036
f 2037 2038 2039 2040
f 2041 2042 2043 2044
f 2045 2046 2047 2048
f 2049 2050 2051 2052
f 2053 2054 2055 2056
f 2057 2058 2059 2060
f 2061 2062 2063 2064
f 2065 2066 2067 2068
f 2069 2070 2071 2072
f 2073 2074 2075 2076
f 2077 2078 2079 2080
f 2081 2082 2083 2084
f 2085 2086 2087 2088
f 2089 2090 2091 2092
f 2093 2094 2095 2096
f 2097 2098 2099 2100
f 2101 2102 2103 2104
f 2105 2106 2107 2108
f 2109 2110 2111 2112
f 2113 2114 2115 2116
f 2117 2118 2119 2120
f 2121 2122 2123 2124
f 2125 2126 2127 2128
f 2129 2130 2131 2132
f 2133 2134 2135 2136
f 2137 2138 2139 2140
f 2141 2142 2143 2144
f 2145 2146 2147 2148
f 2149 2150 2151 2152
f 2153 2154 2155 2156
f 2157 2158 2159 2160
f 2161 2162 2163 2164
f 2165 2166 2167 2168
f 2169 2170 2171 2172
f 2173 2174 2175 2176
f 2177 2178 2179 2180
f 2181 2182 2183 2184
f 2185 2186 2187 2188
f 2189 2190 2191 2192
f 2193 2194 2195 2196
f 2197 2198 2199 2200
f 2201 2202 2203 2204
f 2205 2206 2207 2208
f 2209 2210 2211 2212
f 2213 2214 2215 2216
f 2217 2218 2219 2220
f 2221 2222 2223 2224
f 2225 2226 2227 2228
f 2229 2230 2231 2232
f 2233 2234 2235 2236
f 2237 2238 2239 2240
f 2241 2242 2243 2244
f 2245 2246 2247 2248
f 2249 2250 2251 2252
f 2253 2254 2255 2256
f 2257 2258 2259 2260
f 2261 2262 2263 2264
f 2265 2266 2267 2268
f 2269 2270 2271 2272
f 2273 2274 2275 2276
f 2277 2278 2279 2280
f 2281 2282 2283 2284
f 2285 2286 2287 2288
f 2289 2290 2291 2292
f 2293 2294 2295 2296
f 2297 2298 2299 2300
f 2301 2302 2303 2304
f 2305 2306 2307 2308
f 2309 2310 2311 2312
f 2313 2314 2315 2316
f 2317 2318 2319 2320
f 2321 2322 2323 2324
f 2325 2326 2327 2328
f 2329 2330 2331 2332
f 2333 2334 2335 2336
f 2337 2338 2339 2340
f 2341 2342 2343 2344
f 2345 2346 2347 2348
f 2349 2350 2351 2352
f 2353 2354 2355 2356
f 2357 2358 2359 2360 2361 2362 2363 2364 2365 2366
f 2367 2368 2369 2370 2371 2372 2373 2374 2375 2376
f 2377 2378 2379 2380
f 2381 2382 2383 2384
f 2385 2386 2387 2388
f 2389 2390 2391 2392
f 2393 2394 2395 2396
f 2397 2398 2399 2400
f 2401 2402 2403 2404
f 2405 2406 2407 2408
f 2409 2410 2411 2412
f 2413 2414 2415 2416
f 2417 2418 2419 2420 2421 2422 2423 2424 2425 2426
f 2427 2428 2429 2430 2431 2432 2433 2434 2435 2436
f 2437 2438 2439 2440
f 2441 2442 2443 2444
f 2445 2446 2447 2448
f 2449 2450 2451 2452
f 2453 2454 2455 2456
f 2457 2458 2459 2460
f 2461 2462 2463 2464
f 2465 2466 2467 2468
f 2469 2470 2471 2472
f 2473 2474 2475 2476
f 2477 2478 2479 2480 2481 2482 2483 2484 2485 2486
f 2487 2488 2489 2490 2491 2492 2493 2494 2495 2496
f 2497 2498 2499 2500
f 2501 2502 2503 2504
f 2505 2506 2507 2508
f 2509 2510 2511 2512
f 2513 2514 2515 2516
f 2517 2518 2519 2520
f 2521 2522 2523 2524
f 2525 2526 2527 2528
f 2529 2530 2531 2532
f 2533 2534 2535 2536
f 2537 2538 2539 2540 2541 2542 2543 2544 2545 2546
f 2547 2548 2549 2550 2551 2552 2553 2554 2555 2556
usemtl DarkSteel
f 2557 2558 2559 2560
f 2561 2562 2563 2564
f 2565 2566 2567 2568
f 2569 2570 2571 2572
f 2573 2574 2575 2576
f 2577 2578 2579 2580
f 2581 2582 2583 2584
f 2585 2586 2587 2588
f 2589 2590 2591 2592
f 2593 2594 2595 2596
f 2597 2598 2599 2600
f 2601 2602 2603 2604
f 2605 2606 2607 2608
f 2609 2610 2611 2612
f 2613 2614 2615 2616
f 2617 2618 2619 2620
f 2621 2622 2623 2624
f 2625 2626 2627 2628
f 2629 2630 2631
f 2632 2633 2634
f 2635 2636 2637
f 2638 2639 2640
f 2641 2642 2643
f 2644 2645 2646
f 2647 2648 2649
f 2650 2651 2652
usemtl Stainless
f 2653 2654 2655 2656
f 2657 2658 2659 2660
f 2661 2662 2663 2664
f 2665 2666 2667 2668
f 2669 2670 2671 2672
f 2673 2674 2675 2676
f 2677 2678 2679 2680
f 2681 2682 2683 2684
f 2685 2686 2687 2688
f 2689 2690 2691 2692
f 2693 2694 2695 2696
f 2697 2698 2699 2700
f 2701 2702 2703 2704
f 2705 2706 2707 2708
f 2709 2710 2711 2712
f 2713 2714 2715 2716
f 2717 2718 2719 2720
f 2721 2722 2723 2724
f 2725 2726 2727
f 2728 2729 2730
f 2731 2732 2733
f 2734 2735 2736
f 2737 2738 2739
f 2740 2741 2742
f 2743 2744 2745
f 2746 2747 2748
